  0
SECTION
  2
HEADER
  9
$ACADVER
  1
AC1009
  9
$INSBASE
 10
0.0
 20
0.0
 30
0.0
  9
$EXTMIN
 10
-0.0000000000000008
 20
-125.3490000000001032
 30
0.0
  9
$EXTMAX
 10
347.9800000000000182
 20
2.1589999999999621
 30
0.0
  9
$LIMMIN
 10
0.0
 20
0.0
  9
$LIMMAX
 10
12.0
 20
9.0
  9
$ORTHOMODE
 70
     0
  9
$REGENMODE
 70
     1
  9
$FILLMODE
 70
     1
  9
$QTEXTMODE
 70
     0
  9
$MIRRTEXT
 70
     0
  9
$DRAGMODE
 70
     2
  9
$LTSCALE
 40
1.0
  9
$OSMODE
 70
   103
  9
$ATTMODE
 70
     1
  9
$TEXTSIZE
 40
0.2
  9
$TRACEWID
 40
0.05
  9
$TEXTSTYLE
  7
STANDARD
  9
$CLAYER
  8
0
  9
$CELTYPE
  6
CONTINUOUS
  9
$CECOLOR
 62
   256
  9
$DIMSCALE
 40
1.0
  9
$DIMASZ
 40
0.18
  9
$DIMEXO
 40
0.0625
  9
$DIMDLI
 40
0.38
  9
$DIMRND
 40
0.0
  9
$DIMDLE
 40
0.0
  9
$DIMEXE
 40
0.18
  9
$DIMTP
 40
0.0
  9
$DIMTM
 40
0.0
  9
$DIMTXT
 40
0.18
  9
$DIMCEN
 40
0.09
  9
$DIMTSZ
 40
0.0
  9
$DIMTOL
 70
     0
  9
$DIMLIM
 70
     0
  9
$DIMTIH
 70
     1
  9
$DIMTOH
 70
     1
  9
$DIMSE1
 70
     0
  9
$DIMSE2
 70
     0
  9
$DIMTAD
 70
     0
  9
$DIMZIN
 70
     0
  9
$DIMBLK
  1

  9
$DIMASO
 70
     1
  9
$DIMSHO
 70
     1
  9
$DIMPOST
  1

  9
$DIMAPOST
  1

  9
$DIMALT
 70
     0
  9
$DIMALTD
 70
     2
  9
$DIMALTF
 40
25.3999999999999986
  9
$DIMLFAC
 40
1.0
  9
$DIMTOFL
 70
     0
  9
$DIMTVP
 40
0.0
  9
$DIMTIX
 70
     0
  9
$DIMSOXD
 70
     0
  9
$DIMSAH
 70
     0
  9
$DIMBLK1
  1

  9
$DIMBLK2
  1

  9
$DIMSTYLE
  2
STANDARD
  9
$DIMCLRD
 70
     0
  9
$DIMCLRE
 70
     0
  9
$DIMCLRT
 70
     0
  9
$DIMTFAC
 40
1.0
  9
$DIMGAP
 40
0.09
  9
$LUNITS
 70
     2
  9
$LUPREC
 70
     4
  9
$SKETCHINC
 40
0.1
  9
$FILLETRAD
 40
0.5
  9
$AUNITS
 70
     0
  9
$AUPREC
 70
     0
  9
$MENU
  1
.
  9
$ELEVATION
 40
0.0
  9
$PELEVATION
 40
0.0
  9
$THICKNESS
 40
0.0
  9
$LIMCHECK
 70
     0
  9
$BLIPMODE
 70
     0
  9
$CHAMFERA
 40
0.0
  9
$CHAMFERB
 40
0.0
  9
$SKPOLY
 70
     0
  9
$TDCREATE
 40
2460286.6979745370335877
  9
$TDUPDATE
 40
2460286.7569675929844379
  9
$TDINDWG
 40
0.0034722222
  9
$TDUSRTIMER
 40
0.0034722222
  9
$USRTIMER
 70
     1
  9
$ANGBASE
 50
0.0
  9
$ANGDIR
 70
     0
  9
$PDMODE
 70
     0
  9
$PDSIZE
 40
0.0
  9
$PLINEWID
 40
0.0
  9
$COORDS
 70
     2
  9
$SPLFRAME
 70
     0
  9
$SPLINETYPE
 70
     6
  9
$SPLINESEGS
 70
     8
  9
$ATTDIA
 70
     1
  9
$ATTREQ
 70
     1
  9
$HANDLING
 70
     1
  9
$HANDSEED
  5
CA9
  9
$SURFTAB1
 70
     6
  9
$SURFTAB2
 70
     6
  9
$SURFTYPE
 70
     6
  9
$SURFU
 70
     6
  9
$SURFV
 70
     6
  9
$UCSNAME
  2

  9
$UCSORG
 10
0.0
 20
0.0
 30
0.0
  9
$UCSXDIR
 10
1.0
 20
0.0
 30
0.0
  9
$UCSYDIR
 10
0.0
 20
1.0
 30
0.0
  9
$PUCSNAME
  2

  9
$PUCSORG
 10
0.0
 20
0.0
 30
0.0
  9
$PUCSXDIR
 10
1.0
 20
0.0
 30
0.0
  9
$PUCSYDIR
 10
0.0
 20
1.0
 30
0.0
  9
$USERI1
 70
     0
  9
$USERI2
 70
     0
  9
$USERI3
 70
     0
  9
$USERI4
 70
     0
  9
$USERI5
 70
     0
  9
$USERR1
 40
0.0
  9
$USERR2
 40
0.0
  9
$USERR3
 40
0.0
  9
$USERR4
 40
0.0
  9
$USERR5
 40
0.0
  9
$WORLDVIEW
 70
     1
  9
$SHADEDGE
 70
     3
  9
$SHADEDIF
 70
    70
  9
$TILEMODE
 70
     1
  9
$MAXACTVP
 70
    64
  9
$PLIMCHECK
 70
     0
  9
$PEXTMIN
 10
1.0000000000000000E+20
 20
1.0000000000000000E+20
 30
1.0000000000000000E+20
  9
$PEXTMAX
 10
-1.0000000000000000E+20
 20
-1.0000000000000000E+20
 30
-1.0000000000000000E+20
  9
$PLIMMIN
 10
0.0
 20
0.0
  9
$PLIMMAX
 10
12.0
 20
9.0
  9
$UNITMODE
 70
     0
  9
$VISRETAIN
 70
     1
  9
$PLINEGEN
 70
     0
  9
$PSLTSCALE
 70
     1
  0
ENDSEC
  0
SECTION
  2
TABLES
  0
TABLE
  2
VPORT
 70
     1
  0
VPORT
  2
*ACTIVE
 70
     0
 10
0.0
 20
0.0
 11
1.0
 21
1.0
 12
0.0
 22
0.0
 13
0.0
 23
0.0
 14
1.0
 24
1.0
 15
0.0
 25
0.0
 16
-0.0000000000002558
 26
0.0
 36
1148.4348196702399036
 17
173.9900054931640057
 27
-61.5949995517730713
 37
0.0
 40
370.6054206842865142
 41
2.3662628145386759
 42
50.0
 43
0.0
 44
0.0
 50
0.0
 51
0.0
 71
     0
 72
   100
 73
     1
 74
     1
 75
     0
 76
     0
 77
     0
 78
     0
  0
ENDTAB
  0
TABLE
  2
LTYPE
 70
     3
  0
LTYPE
  2
CONTINUOUS
 70
     0
  3
______
 72
    65
 73
     0
 40
0.0
  0
ENDTAB
  0
TABLE
  2
LAYER
 70
     1
  0
LAYER
  2
0
 70
     0
 62
     7
  6
CONTINUOUS
  0
ENDTAB
  0
TABLE
  2
STYLE
 70
     2
  0
STYLE
  2
STANDARD
 70
     0
 40
0.0
 41
1.0
 50
0.0
 71
     0
 42
0.2
  3
txt
  4

  0
STYLE
  2
ANNOTATIVE
 70
     0
 40
0.0
 41
1.0
 50
0.0
 71
     0
 42
0.2
  3
txt
  4

  0
ENDTAB
  0
TABLE
  2
VIEW
 70
     0
  0
ENDTAB
  0
TABLE
  2
UCS
 70
     0
  0
ENDTAB
  0
TABLE
  2
APPID
 70
     6
  0
APPID
  2
ACAD
 70
     0
  0
APPID
  2
ACADANNOTATIVE
 70
     0
  0
APPID
  2
ACAD_NAV_VCDISPLAY
 70
     0
  0
APPID
  2
ACAD_MLEADERVER
 70
     0
  0
APPID
  2
ACAD_EXEMPT_FROM_CAD_STANDARDS
 70
     0
  0
APPID
  2
ACAD_DSTYLE_DIMRADIAL_EXTENSION
 70
     0
  0
ENDTAB
  0
TABLE
  2
DIMSTYLE
 70
     4
  0
DIMSTYLE
  2
STANDARD
 70
     0
  3

  4

  5

  6

  7

 40
1.0
 41
0.18
 42
0.0625
 43
0.38
 44
0.18
 45
0.0
 46
0.0
 47
0.0
 48
0.0
140
0.18
141
0.09
142
0.0
143
25.3999999999999986
144
1.0
145
0.0
146
1.0
147
0.09
 71
     0
 72
     0
 73
     1
 74
     1
 75
     0
 76
     0
 77
     0
 78
     0
170
     0
171
     2
172
     0
173
     0
174
     0
175
     0
176
     0
177
     0
178
     0
  0
DIMSTYLE
  2
ANNOTATIVE
 70
     0
  3

  4

  5

  6

  7

 40
1.0
 41
0.18
 42
0.0625
 43
0.38
 44
0.18
 45
0.0
 46
0.0
 47
0.0
 48
0.0
140
0.18
141
0.09
142
0.0
143
25.3999999999999986
144
1.0
145
0.0
146
1.0
147
0.09
 71
     0
 72
     0
 73
     1
 74
     1
 75
     0
 76
     0
 77
     0
 78
     0
170
     0
171
     2
172
     0
173
     0
174
     0
175
     0
176
     0
177
     0
178
     0
  0
ENDTAB
  0
ENDSEC
  0
SECTION
  2
BLOCKS
  0
BLOCK
  8
0
  2
$MODEL_SPACE
 70
     0
 10
0.0
 20
0.0
 30
0.0
  3
$MODEL_SPACE
  1

  0
ENDBLK
  5
C21
  8
0
  0
BLOCK
 67
     1
  8
0
  2
$PAPER_SPACE
 70
     0
 10
0.0
 20
0.0
 30
0.0
  3
$PAPER_SPACE
  1

  0
ENDBLK
  5
C1D
 67
     1
  8
0
  0
BLOCK
  8
0
  2
A$C342B5F59
 70
     0
 10
0.0
 20
0.0
 30
0.0
  3
A$C342B5F59
  1

  0
LINE
  5
C2E
  8
0
  6
CONTINUOUS
 10
23.0999999999999588
 20
0.0
 30
0.0
 11
23.0999999999999588
 21
17.2999999999999403
 31
0.0
  0
LINE
  5
C2F
  8
0
  6
CONTINUOUS
 10
0.0
 20
0.0
 30
0.0
 11
0.0
 21
17.2999999999999403
 31
0.0
  0
LINE
  5
C30
  8
0
  6
CONTINUOUS
 10
0.5
 20
17.799999999999919
 30
0.0
 11
22.5999999999999694
 21
17.799999999999919
 31
0.0
  0
ARC
  5
C31
  8
0
  6
CONTINUOUS
 10
22.5999999999999694
 20
17.2999999999999403
 30
0.0
 40
0.5
 50
0.0
 51
90.0
  0
ARC
  5
C32
  8
0
  6
CONTINUOUS
 10
0.5
 20
17.2999999999999403
 30
0.0
 40
0.5
 50
90.0
 51
180.0
  0
ENDBLK
  5
C34
  8
0
  0
ENDSEC
  0
SECTION
  2
ENTITIES
  0
LINE
  5
795
  8
0
 10
3.024999999999999
 20
-2.5250000000000039
 30
0.0
 11
16.0249999999999915
 21
-2.5250000000000039
 31
0.0
  0
LINE
  5
796
  8
0
 10
3.024999999999999
 20
-16.5249999999999915
 30
0.0
 11
16.0249999999999915
 21
-16.5249999999999915
 31
0.0
  0
LINE
  5
797
  8
0
 10
2.524999999999999
 20
-3.0250000000000039
 30
0.0
 11
2.524999999999999
 21
-16.0249999999999915
 31
0.0
  0
LINE
  5
798
  8
0
 10
16.5249999999999915
 20
-3.0250000000000039
 30
0.0
 11
16.5249999999999915
 21
-16.0249999999999915
 31
0.0
  0
ARC
  5
799
  8
0
 10
3.024999999999999
 20
-3.0250000000000039
 30
0.0
 40
0.5
 50
90.0
 51
180.0
  0
ARC
  5
79A
  8
0
 10
16.0249999999999915
 20
-3.0250000000000039
 30
0.0
 40
0.5
 50
0.0
 51
90.0
  0
ARC
  5
79B
  8
0
 10
3.024999999999999
 20
-16.0249999999999915
 30
0.0
 40
0.5
 50
180.0
 51
270.0
  0
ARC
  5
79C
  8
0
 10
16.0249999999999915
 20
-16.0249999999999915
 30
0.0
 40
0.5
 50
270.0
 51
0.0
  0
LINE
  5
79D
  8
0
 10
41.1249999999999929
 20
-2.5250000000000039
 30
0.0
 11
54.125
 21
-2.5250000000000039
 31
0.0
  0
LINE
  5
79E
  8
0
 10
41.1249999999999929
 20
-16.5249999999999915
 30
0.0
 11
54.125
 21
-16.5249999999999915
 31
0.0
  0
LINE
  5
79F
  8
0
 10
40.625
 20
-3.0250000000000039
 30
0.0
 11
40.625
 21
-16.0249999999999915
 31
0.0
  0
LINE
  5
7A0
  8
0
 10
54.625
 20
-3.0250000000000039
 30
0.0
 11
54.625
 21
-16.0249999999999915
 31
0.0
  0
ARC
  5
7A1
  8
0
 10
41.1249999999999929
 20
-3.0250000000000039
 30
0.0
 40
0.5
 50
90.0
 51
180.0
  0
ARC
  5
7A2
  8
0
 10
54.125
 20
-3.0250000000000039
 30
0.0
 40
0.5
 50
0.0
 51
90.0
  0
ARC
  5
7A3
  8
0
 10
41.1249999999999929
 20
-16.0249999999999915
 30
0.0
 40
0.5
 50
180.0
 51
270.0
  0
ARC
  5
7A4
  8
0
 10
54.125
 20
-16.0249999999999915
 30
0.0
 40
0.5
 50
270.0
 51
0.0
  0
LINE
  5
7A5
  8
0
 10
60.1749999999999972
 20
-2.5250000000000039
 30
0.0
 11
73.1749999999999829
 21
-2.5250000000000039
 31
0.0
  0
LINE
  5
7A6
  8
0
 10
60.1749999999999972
 20
-16.5249999999999915
 30
0.0
 11
73.1749999999999829
 21
-16.5249999999999915
 31
0.0
  0
LINE
  5
7A7
  8
0
 10
59.6749999999999972
 20
-3.0250000000000039
 30
0.0
 11
59.6749999999999972
 21
-16.0249999999999915
 31
0.0
  0
LINE
  5
7A8
  8
0
 10
73.6749999999999829
 20
-3.0250000000000039
 30
0.0
 11
73.6749999999999829
 21
-16.0249999999999915
 31
0.0
  0
ARC
  5
7A9
  8
0
 10
60.1749999999999972
 20
-3.0250000000000039
 30
0.0
 40
0.5
 50
90.0
 51
180.0
  0
ARC
  5
7AA
  8
0
 10
73.1749999999999829
 20
-3.0250000000000039
 30
0.0
 40
0.5
 50
0.0
 51
90.0
  0
ARC
  5
7AB
  8
0
 10
60.1749999999999972
 20
-16.0249999999999915
 30
0.0
 40
0.5
 50
180.0
 51
270.0
  0
ARC
  5
7AC
  8
0
 10
73.1749999999999829
 20
-16.0249999999999915
 30
0.0
 40
0.5
 50
270.0
 51
0.0
  0
LINE
  5
7AD
  8
0
 10
79.2249999999999801
 20
-2.5250000000000039
 30
0.0
 11
92.2249999999999943
 21
-2.5250000000000039
 31
0.0
  0
LINE
  5
7AE
  8
0
 10
79.2249999999999801
 20
-16.5249999999999915
 30
0.0
 11
92.2249999999999943
 21
-16.5249999999999915
 31
0.0
  0
LINE
  5
7AF
  8
0
 10
78.7249999999999801
 20
-3.0250000000000039
 30
0.0
 11
78.7249999999999801
 21
-16.0249999999999915
 31
0.0
  0
LINE
  5
7B0
  8
0
 10
92.7249999999999943
 20
-3.0250000000000039
 30
0.0
 11
92.7249999999999943
 21
-16.0249999999999915
 31
0.0
  0
ARC
  5
7B1
  8
0
 10
79.2249999999999801
 20
-3.0250000000000039
 30
0.0
 40
0.5
 50
90.0
 51
180.0
  0
ARC
  5
7B2
  8
0
 10
92.2249999999999943
 20
-3.0250000000000039
 30
0.0
 40
0.5
 50
0.0
 51
90.0
  0
ARC
  5
7B3
  8
0
 10
79.2249999999999801
 20
-16.0249999999999915
 30
0.0
 40
0.5
 50
180.0
 51
270.0
  0
ARC
  5
7B4
  8
0
 10
92.2249999999999943
 20
-16.0249999999999915
 30
0.0
 40
0.5
 50
270.0
 51
0.0
  0
LINE
  5
7B5
  8
0
 10
98.2750000000000057
 20
-2.5250000000000039
 30
0.0
 11
111.2750000000000057
 21
-2.5250000000000039
 31
0.0
  0
LINE
  5
7B6
  8
0
 10
98.2750000000000057
 20
-16.5249999999999915
 30
0.0
 11
111.2750000000000057
 21
-16.5249999999999915
 31
0.0
  0
LINE
  5
7B7
  8
0
 10
97.7750000000000057
 20
-3.0250000000000039
 30
0.0
 11
97.7750000000000057
 21
-16.0249999999999915
 31
0.0
  0
LINE
  5
7B8
  8
0
 10
111.7750000000000057
 20
-3.0250000000000039
 30
0.0
 11
111.7750000000000057
 21
-16.0249999999999915
 31
0.0
  0
ARC
  5
7B9
  8
0
 10
98.2750000000000057
 20
-3.0250000000000039
 30
0.0
 40
0.5
 50
90.0
 51
180.0
  0
ARC
  5
7BA
  8
0
 10
111.2750000000000057
 20
-3.0250000000000039
 30
0.0
 40
0.5
 50
0.0
 51
90.0
  0
ARC
  5
7BB
  8
0
 10
98.2750000000000057
 20
-16.0249999999999915
 30
0.0
 40
0.5
 50
180.0
 51
270.0
  0
ARC
  5
7BC
  8
0
 10
111.2750000000000057
 20
-16.0249999999999915
 30
0.0
 40
0.5
 50
270.0
 51
0.0
  0
LINE
  5
7BD
  8
0
 10
126.8499999999999943
 20
-2.5250000000000039
 30
0.0
 11
139.8499999999999943
 21
-2.5250000000000039
 31
0.0
  0
LINE
  5
7BE
  8
0
 10
126.8499999999999943
 20
-16.5249999999999915
 30
0.0
 11
139.8499999999999943
 21
-16.5249999999999915
 31
0.0
  0
LINE
  5
7BF
  8
0
 10
126.3499999999999943
 20
-3.0250000000000039
 30
0.0
 11
126.3499999999999943
 21
-16.0249999999999915
 31
0.0
  0
LINE
  5
7C0
  8
0
 10
140.3499999999999943
 20
-3.0250000000000039
 30
0.0
 11
140.3499999999999943
 21
-16.0249999999999915
 31
0.0
  0
ARC
  5
7C1
  8
0
 10
126.8499999999999943
 20
-3.0250000000000039
 30
0.0
 40
0.5
 50
90.0
 51
180.0
  0
ARC
  5
7C2
  8
0
 10
139.8499999999999943
 20
-3.0250000000000039
 30
0.0
 40
0.5
 50
0.0
 51
90.0
  0
ARC
  5
7C3
  8
0
 10
126.8499999999999943
 20
-16.0249999999999915
 30
0.0
 40
0.5
 50
180.0
 51
270.0
  0
ARC
  5
7C4
  8
0
 10
139.8499999999999943
 20
-16.0249999999999915
 30
0.0
 40
0.5
 50
270.0
 51
0.0
  0
LINE
  5
7C5
  8
0
 10
145.9000000000000057
 20
-2.5250000000000039
 30
0.0
 11
158.9000000000000057
 21
-2.5250000000000039
 31
0.0
  0
LINE
  5
7C6
  8
0
 10
145.9000000000000057
 20
-16.5249999999999915
 30
0.0
 11
158.9000000000000057
 21
-16.5249999999999915
 31
0.0
  0
LINE
  5
7C7
  8
0
 10
145.4000000000000057
 20
-3.0250000000000039
 30
0.0
 11
145.4000000000000057
 21
-16.0249999999999915
 31
0.0
  0
LINE
  5
7C8
  8
0
 10
159.4000000000000057
 20
-3.0250000000000039
 30
0.0
 11
159.4000000000000057
 21
-16.0249999999999915
 31
0.0
  0
ARC
  5
7C9
  8
0
 10
145.9000000000000057
 20
-3.0250000000000039
 30
0.0
 40
0.5
 50
90.0
 51
180.0
  0
ARC
  5
7CA
  8
0
 10
158.9000000000000057
 20
-3.0250000000000039
 30
0.0
 40
0.5
 50
0.0
 51
90.0
  0
ARC
  5
7CB
  8
0
 10
145.9000000000000057
 20
-16.0249999999999915
 30
0.0
 40
0.5
 50
180.0
 51
270.0
  0
ARC
  5
7CC
  8
0
 10
158.9000000000000057
 20
-16.0249999999999915
 30
0.0
 40
0.5
 50
270.0
 51
0.0
  0
LINE
  5
7CD
  8
0
 10
164.9499999999999034
 20
-2.5250000000000039
 30
0.0
 11
177.9499999999999034
 21
-2.5250000000000039
 31
0.0
  0
LINE
  5
7CE
  8
0
 10
164.9499999999999034
 20
-16.5249999999999915
 30
0.0
 11
177.9499999999999034
 21
-16.5249999999999915
 31
0.0
  0
LINE
  5
7CF
  8
0
 10
164.4499999999999034
 20
-3.0250000000000039
 30
0.0
 11
164.4499999999999034
 21
-16.0249999999999915
 31
0.0
  0
LINE
  5
7D0
  8
0
 10
178.4499999999999034
 20
-3.0250000000000039
 30
0.0
 11
178.4499999999999034
 21
-16.0249999999999915
 31
0.0
  0
ARC
  5
7D1
  8
0
 10
164.9499999999999034
 20
-3.0250000000000039
 30
0.0
 40
0.5
 50
90.0
 51
180.0
  0
ARC
  5
7D2
  8
0
 10
177.9499999999999034
 20
-3.0250000000000039
 30
0.0
 40
0.5
 50
0.0
 51
90.0
  0
ARC
  5
7D3
  8
0
 10
164.9499999999999034
 20
-16.0249999999999915
 30
0.0
 40
0.5
 50
180.0
 51
270.0
  0
ARC
  5
7D4
  8
0
 10
177.9499999999999034
 20
-16.0249999999999915
 30
0.0
 40
0.5
 50
270.0
 51
0.0
  0
LINE
  5
7D5
  8
0
 10
184.0
 20
-2.5250000000000039
 30
0.0
 11
197.0
 21
-2.5250000000000039
 31
0.0
  0
LINE
  5
7D6
  8
0
 10
184.0
 20
-16.5249999999999915
 30
0.0
 11
197.0
 21
-16.5249999999999915
 31
0.0
  0
LINE
  5
7D7
  8
0
 10
183.5
 20
-3.0250000000000039
 30
0.0
 11
183.5
 21
-16.0249999999999915
 31
0.0
  0
LINE
  5
7D8
  8
0
 10
197.5
 20
-3.0250000000000039
 30
0.0
 11
197.5
 21
-16.0249999999999915
 31
0.0
  0
ARC
  5
7D9
  8
0
 10
184.0
 20
-3.0250000000000039
 30
0.0
 40
0.5
 50
90.0
 51
180.0
  0
ARC
  5
7DA
  8
0
 10
197.0
 20
-3.0250000000000039
 30
0.0
 40
0.5
 50
0.0
 51
90.0
  0
ARC
  5
7DB
  8
0
 10
184.0
 20
-16.0249999999999915
 30
0.0
 40
0.5
 50
180.0
 51
270.0
  0
ARC
  5
7DC
  8
0
 10
197.0
 20
-16.0249999999999915
 30
0.0
 40
0.5
 50
270.0
 51
0.0
  0
LINE
  5
7DD
  8
0
 10
212.5749999999999886
 20
-2.5250000000000039
 30
0.0
 11
225.5749999999999886
 21
-2.5250000000000039
 31
0.0
  0
LINE
  5
7DE
  8
0
 10
212.5749999999999886
 20
-16.5249999999999915
 30
0.0
 11
225.5749999999999886
 21
-16.5249999999999915
 31
0.0
  0
LINE
  5
7DF
  8
0
 10
212.0749999999999886
 20
-3.0250000000000039
 30
0.0
 11
212.0749999999999886
 21
-16.0249999999999915
 31
0.0
  0
LINE
  5
7E0
  8
0
 10
226.0749999999999886
 20
-3.0250000000000039
 30
0.0
 11
226.0749999999999886
 21
-16.0249999999999915
 31
0.0
  0
ARC
  5
7E1
  8
0
 10
212.5749999999999886
 20
-3.0250000000000039
 30
0.0
 40
0.5
 50
90.0
 51
180.0
  0
ARC
  5
7E2
  8
0
 10
225.5749999999999886
 20
-3.0250000000000039
 30
0.0
 40
0.5
 50
0.0
 51
90.0
  0
ARC
  5
7E3
  8
0
 10
212.5749999999999886
 20
-16.0249999999999915
 30
0.0
 40
0.5
 50
180.0
 51
270.0
  0
ARC
  5
7E4
  8
0
 10
225.5749999999999886
 20
-16.0249999999999915
 30
0.0
 40
0.5
 50
270.0
 51
0.0
  0
LINE
  5
7E5
  8
0
 10
231.625
 20
-2.5250000000000039
 30
0.0
 11
244.625
 21
-2.5250000000000039
 31
0.0
  0
LINE
  5
7E6
  8
0
 10
231.625
 20
-16.5249999999999915
 30
0.0
 11
244.625
 21
-16.5249999999999915
 31
0.0
  0
LINE
  5
7E7
  8
0
 10
231.125
 20
-3.0250000000000039
 30
0.0
 11
231.125
 21
-16.0249999999999915
 31
0.0
  0
LINE
  5
7E8
  8
0
 10
245.125
 20
-3.0250000000000039
 30
0.0
 11
245.125
 21
-16.0249999999999915
 31
0.0
  0
ARC
  5
7E9
  8
0
 10
231.625
 20
-3.0250000000000039
 30
0.0
 40
0.5
 50
90.0
 51
180.0
  0
ARC
  5
7EA
  8
0
 10
244.625
 20
-3.0250000000000039
 30
0.0
 40
0.5
 50
0.0
 51
90.0
  0
ARC
  5
7EB
  8
0
 10
231.625
 20
-16.0249999999999915
 30
0.0
 40
0.5
 50
180.0
 51
270.0
  0
ARC
  5
7EC
  8
0
 10
244.625
 20
-16.0249999999999915
 30
0.0
 40
0.5
 50
270.0
 51
0.0
  0
LINE
  5
7ED
  8
0
 10
250.6750000000000114
 20
-2.5250000000000039
 30
0.0
 11
263.6750000000000114
 21
-2.5250000000000039
 31
0.0
  0
LINE
  5
7EE
  8
0
 10
250.6750000000000114
 20
-16.5249999999999915
 30
0.0
 11
263.6750000000000114
 21
-16.5249999999999915
 31
0.0
  0
LINE
  5
7EF
  8
0
 10
250.1750000000000114
 20
-3.0250000000000039
 30
0.0
 11
250.1750000000000114
 21
-16.0249999999999915
 31
0.0
  0
LINE
  5
7F0
  8
0
 10
264.1750000000000114
 20
-3.0250000000000039
 30
0.0
 11
264.1750000000000114
 21
-16.0249999999999915
 31
0.0
  0
ARC
  5
7F1
  8
0
 10
250.6750000000000114
 20
-3.0250000000000039
 30
0.0
 40
0.5
 50
90.0
 51
180.0
  0
ARC
  5
7F2
  8
0
 10
263.6750000000000114
 20
-3.0250000000000039
 30
0.0
 40
0.5
 50
0.0
 51
90.0
  0
ARC
  5
7F3
  8
0
 10
250.6750000000000114
 20
-16.0249999999999915
 30
0.0
 40
0.5
 50
180.0
 51
270.0
  0
ARC
  5
7F4
  8
0
 10
263.6750000000000114
 20
-16.0249999999999915
 30
0.0
 40
0.5
 50
270.0
 51
0.0
  0
LINE
  5
7F5
  8
0
 10
269.7250000000000227
 20
-2.5250000000000039
 30
0.0
 11
282.7250000000000227
 21
-2.5250000000000039
 31
0.0
  0
LINE
  5
7F6
  8
0
 10
269.7250000000000227
 20
-16.5249999999999915
 30
0.0
 11
282.7250000000000227
 21
-16.5249999999999915
 31
0.0
  0
LINE
  5
7F7
  8
0
 10
269.2250000000000227
 20
-3.0250000000000039
 30
0.0
 11
269.2250000000000227
 21
-16.0249999999999915
 31
0.0
  0
LINE
  5
7F8
  8
0
 10
283.2250000000000227
 20
-3.0250000000000039
 30
0.0
 11
283.2250000000000227
 21
-16.0249999999999915
 31
0.0
  0
ARC
  5
7F9
  8
0
 10
269.7250000000000227
 20
-3.0250000000000039
 30
0.0
 40
0.5
 50
90.0
 51
180.0
  0
ARC
  5
7FA
  8
0
 10
282.7250000000000227
 20
-3.0250000000000039
 30
0.0
 40
0.5
 50
0.0
 51
90.0
  0
ARC
  5
7FB
  8
0
 10
269.7250000000000227
 20
-16.0249999999999915
 30
0.0
 40
0.5
 50
180.0
 51
270.0
  0
ARC
  5
7FC
  8
0
 10
282.7250000000000227
 20
-16.0249999999999915
 30
0.0
 40
0.5
 50
270.0
 51
0.0
  0
LINE
  5
7FD
  8
0
 10
293.8550000000000182
 20
-2.5250000000000039
 30
0.0
 11
306.8550000000000182
 21
-2.5250000000000039
 31
0.0
  0
LINE
  5
7FE
  8
0
 10
293.8550000000000182
 20
-16.5249999999999915
 30
0.0
 11
306.8550000000000182
 21
-16.5249999999999915
 31
0.0
  0
LINE
  5
7FF
  8
0
 10
293.3550000000000182
 20
-3.0250000000000039
 30
0.0
 11
293.3550000000000182
 21
-16.0249999999999915
 31
0.0
  0
LINE
  5
800
  8
0
 10
307.3550000000000182
 20
-3.0250000000000039
 30
0.0
 11
307.3550000000000182
 21
-16.0249999999999915
 31
0.0
  0
ARC
  5
801
  8
0
 10
293.8550000000000182
 20
-3.0250000000000039
 30
0.0
 40
0.5
 50
90.0
 51
180.0
  0
ARC
  5
802
  8
0
 10
306.8550000000000182
 20
-3.0250000000000039
 30
0.0
 40
0.5
 50
0.0
 51
90.0
  0
ARC
  5
803
  8
0
 10
293.8550000000000182
 20
-16.0249999999999915
 30
0.0
 40
0.5
 50
180.0
 51
270.0
  0
ARC
  5
804
  8
0
 10
306.8550000000000182
 20
-16.0249999999999915
 30
0.0
 40
0.5
 50
270.0
 51
0.0
  0
LINE
  5
805
  8
0
 10
312.9049999999999727
 20
-2.5250000000000039
 30
0.0
 11
325.9049999999999727
 21
-2.5250000000000039
 31
0.0
  0
LINE
  5
806
  8
0
 10
312.9049999999999727
 20
-16.5249999999999915
 30
0.0
 11
325.9049999999999727
 21
-16.5249999999999915
 31
0.0
  0
LINE
  5
807
  8
0
 10
312.4049999999999727
 20
-3.0250000000000039
 30
0.0
 11
312.4049999999999727
 21
-16.0249999999999915
 31
0.0
  0
LINE
  5
808
  8
0
 10
326.4049999999999727
 20
-3.0250000000000039
 30
0.0
 11
326.4049999999999727
 21
-16.0249999999999915
 31
0.0
  0
ARC
  5
809
  8
0
 10
312.9049999999999727
 20
-3.0250000000000039
 30
0.0
 40
0.5
 50
90.0
 51
180.0
  0
ARC
  5
80A
  8
0
 10
325.9049999999999727
 20
-3.0250000000000039
 30
0.0
 40
0.5
 50
0.0
 51
90.0
  0
ARC
  5
80B
  8
0
 10
312.9049999999999727
 20
-16.0249999999999915
 30
0.0
 40
0.5
 50
180.0
 51
270.0
  0
ARC
  5
80C
  8
0
 10
325.9049999999999727
 20
-16.0249999999999915
 30
0.0
 40
0.5
 50
270.0
 51
0.0
  0
LINE
  5
80D
  8
0
 10
331.9549999999999841
 20
-2.5250000000000039
 30
0.0
 11
344.9549999999999841
 21
-2.5250000000000039
 31
0.0
  0
LINE
  5
80E
  8
0
 10
331.9549999999999841
 20
-16.5249999999999915
 30
0.0
 11
344.9549999999999841
 21
-16.5249999999999915
 31
0.0
  0
LINE
  5
80F
  8
0
 10
331.4549999999999841
 20
-3.0250000000000039
 30
0.0
 11
331.4549999999999841
 21
-16.0249999999999915
 31
0.0
  0
LINE
  5
810
  8
0
 10
345.4549999999999841
 20
-3.0250000000000039
 30
0.0
 11
345.4549999999999841
 21
-16.0249999999999915
 31
0.0
  0
ARC
  5
811
  8
0
 10
331.9549999999999841
 20
-3.0250000000000039
 30
0.0
 40
0.5
 50
90.0
 51
180.0
  0
ARC
  5
812
  8
0
 10
344.9549999999999841
 20
-3.0250000000000039
 30
0.0
 40
0.5
 50
0.0
 51
90.0
  0
ARC
  5
813
  8
0
 10
331.9549999999999841
 20
-16.0249999999999915
 30
0.0
 40
0.5
 50
180.0
 51
270.0
  0
ARC
  5
814
  8
0
 10
344.9549999999999841
 20
-16.0249999999999915
 30
0.0
 40
0.5
 50
270.0
 51
0.0
  0
LINE
  5
815
  8
0
 10
3.024999999999999
 20
-30.4650000000000603
 30
0.0
 11
16.0249999999999915
 21
-30.4650000000000603
 31
0.0
  0
LINE
  5
816
  8
0
 10
3.024999999999999
 20
-44.4650000000000603
 30
0.0
 11
16.0249999999999915
 21
-44.4650000000000603
 31
0.0
  0
LINE
  5
817
  8
0
 10
2.524999999999999
 20
-30.9650000000000603
 30
0.0
 11
2.524999999999999
 21
-43.9650000000000531
 31
0.0
  0
LINE
  5
818
  8
0
 10
16.5249999999999915
 20
-30.9650000000000603
 30
0.0
 11
16.5249999999999915
 21
-43.9650000000000531
 31
0.0
  0
ARC
  5
819
  8
0
 10
3.024999999999999
 20
-30.9650000000000603
 30
0.0
 40
0.5
 50
90.0
 51
180.0
  0
ARC
  5
81A
  8
0
 10
16.0249999999999915
 20
-30.9650000000000603
 30
0.0
 40
0.5
 50
0.0
 51
90.0
  0
ARC
  5
81B
  8
0
 10
3.024999999999999
 20
-43.9650000000000531
 30
0.0
 40
0.5
 50
180.0
 51
270.0
  0
ARC
  5
81C
  8
0
 10
16.0249999999999915
 20
-43.9650000000000531
 30
0.0
 40
0.5
 50
270.0
 51
0.0
  0
LINE
  5
81D
  8
0
 10
22.0749999999999993
 20
-30.4650000000000603
 30
0.0
 11
35.0750000000000028
 21
-30.4650000000000603
 31
0.0
  0
LINE
  5
81E
  8
0
 10
22.0749999999999993
 20
-44.4650000000000603
 30
0.0
 11
35.0750000000000028
 21
-44.4650000000000603
 31
0.0
  0
LINE
  5
81F
  8
0
 10
21.5749999999999993
 20
-30.9650000000000603
 30
0.0
 11
21.5749999999999993
 21
-43.9650000000000531
 31
0.0
  0
LINE
  5
820
  8
0
 10
35.5750000000000028
 20
-30.9650000000000603
 30
0.0
 11
35.5750000000000028
 21
-43.9650000000000531
 31
0.0
  0
ARC
  5
821
  8
0
 10
22.0749999999999993
 20
-30.9650000000000603
 30
0.0
 40
0.5
 50
90.0
 51
180.0
  0
ARC
  5
822
  8
0
 10
35.0750000000000028
 20
-30.9650000000000603
 30
0.0
 40
0.5
 50
0.0
 51
90.0
  0
ARC
  5
823
  8
0
 10
22.0749999999999993
 20
-43.9650000000000531
 30
0.0
 40
0.5
 50
180.0
 51
270.0
  0
ARC
  5
824
  8
0
 10
35.0750000000000028
 20
-43.9650000000000531
 30
0.0
 40
0.5
 50
270.0
 51
0.0
  0
LINE
  5
825
  8
0
 10
41.1249999999999929
 20
-30.4650000000000603
 30
0.0
 11
54.125
 21
-30.4650000000000603
 31
0.0
  0
LINE
  5
826
  8
0
 10
41.1249999999999929
 20
-44.4650000000000603
 30
0.0
 11
54.125
 21
-44.4650000000000603
 31
0.0
  0
LINE
  5
827
  8
0
 10
40.625
 20
-30.9650000000000603
 30
0.0
 11
40.625
 21
-43.9650000000000531
 31
0.0
  0
LINE
  5
828
  8
0
 10
54.625
 20
-30.9650000000000603
 30
0.0
 11
54.625
 21
-43.9650000000000531
 31
0.0
  0
ARC
  5
829
  8
0
 10
41.1249999999999929
 20
-30.9650000000000603
 30
0.0
 40
0.5
 50
90.0
 51
180.0
  0
ARC
  5
82A
  8
0
 10
54.125
 20
-30.9650000000000603
 30
0.0
 40
0.5
 50
0.0
 51
90.0
  0
ARC
  5
82B
  8
0
 10
41.1249999999999929
 20
-43.9650000000000531
 30
0.0
 40
0.5
 50
180.0
 51
270.0
  0
ARC
  5
82C
  8
0
 10
54.125
 20
-43.9650000000000531
 30
0.0
 40
0.5
 50
270.0
 51
0.0
  0
LINE
  5
82D
  8
0
 10
60.1749999999999972
 20
-30.4650000000000603
 30
0.0
 11
73.1749999999999829
 21
-30.4650000000000603
 31
0.0
  0
LINE
  5
82E
  8
0
 10
60.1749999999999972
 20
-44.4650000000000603
 30
0.0
 11
73.1749999999999829
 21
-44.4650000000000603
 31
0.0
  0
LINE
  5
82F
  8
0
 10
59.6749999999999972
 20
-30.9650000000000603
 30
0.0
 11
59.6749999999999972
 21
-43.9650000000000531
 31
0.0
  0
LINE
  5
830
  8
0
 10
73.6749999999999829
 20
-30.9650000000000603
 30
0.0
 11
73.6749999999999829
 21
-43.9650000000000531
 31
0.0
  0
ARC
  5
831
  8
0
 10
60.1749999999999972
 20
-30.9650000000000603
 30
0.0
 40
0.5
 50
90.0
 51
180.0
  0
ARC
  5
832
  8
0
 10
73.1749999999999829
 20
-30.9650000000000603
 30
0.0
 40
0.5
 50
0.0
 51
90.0
  0
ARC
  5
833
  8
0
 10
60.1749999999999972
 20
-43.9650000000000531
 30
0.0
 40
0.5
 50
180.0
 51
270.0
  0
ARC
  5
834
  8
0
 10
73.1749999999999829
 20
-43.9650000000000531
 30
0.0
 40
0.5
 50
270.0
 51
0.0
  0
LINE
  5
835
  8
0
 10
79.2249999999999801
 20
-30.4650000000000603
 30
0.0
 11
92.2249999999999943
 21
-30.4650000000000603
 31
0.0
  0
LINE
  5
836
  8
0
 10
79.2249999999999801
 20
-44.4650000000000603
 30
0.0
 11
92.2249999999999943
 21
-44.4650000000000603
 31
0.0
  0
LINE
  5
837
  8
0
 10
78.7249999999999801
 20
-30.9650000000000603
 30
0.0
 11
78.7249999999999801
 21
-43.9650000000000531
 31
0.0
  0
LINE
  5
838
  8
0
 10
92.7249999999999943
 20
-30.9650000000000603
 30
0.0
 11
92.7249999999999943
 21
-43.9650000000000531
 31
0.0
  0
ARC
  5
839
  8
0
 10
79.2249999999999801
 20
-30.9650000000000603
 30
0.0
 40
0.5
 50
90.0
 51
180.0
  0
ARC
  5
83A
  8
0
 10
92.2249999999999943
 20
-30.9650000000000603
 30
0.0
 40
0.5
 50
0.0
 51
90.0
  0
ARC
  5
83B
  8
0
 10
79.2249999999999801
 20
-43.9650000000000531
 30
0.0
 40
0.5
 50
180.0
 51
270.0
  0
ARC
  5
83C
  8
0
 10
92.2249999999999943
 20
-43.9650000000000531
 30
0.0
 40
0.5
 50
270.0
 51
0.0
  0
LINE
  5
83D
  8
0
 10
98.2750000000000057
 20
-30.4650000000000603
 30
0.0
 11
111.2750000000000057
 21
-30.4650000000000603
 31
0.0
  0
LINE
  5
83E
  8
0
 10
98.2750000000000057
 20
-44.4650000000000603
 30
0.0
 11
111.2750000000000057
 21
-44.4650000000000603
 31
0.0
  0
LINE
  5
83F
  8
0
 10
97.7750000000000057
 20
-30.9650000000000603
 30
0.0
 11
97.7750000000000057
 21
-43.9650000000000531
 31
0.0
  0
LINE
  5
840
  8
0
 10
111.7750000000000057
 20
-30.9650000000000603
 30
0.0
 11
111.7750000000000057
 21
-43.9650000000000531
 31
0.0
  0
ARC
  5
841
  8
0
 10
98.2750000000000057
 20
-30.9650000000000603
 30
0.0
 40
0.5
 50
90.0
 51
180.0
  0
ARC
  5
842
  8
0
 10
111.2750000000000057
 20
-30.9650000000000603
 30
0.0
 40
0.5
 50
0.0
 51
90.0
  0
ARC
  5
843
  8
0
 10
98.2750000000000057
 20
-43.9650000000000531
 30
0.0
 40
0.5
 50
180.0
 51
270.0
  0
ARC
  5
844
  8
0
 10
111.2750000000000057
 20
-43.9650000000000531
 30
0.0
 40
0.5
 50
270.0
 51
0.0
  0
LINE
  5
845
  8
0
 10
117.3250000000000028
 20
-30.4650000000000603
 30
0.0
 11
130.3249999999999886
 21
-30.4650000000000603
 31
0.0
  0
LINE
  5
846
  8
0
 10
117.3250000000000028
 20
-44.4650000000000603
 30
0.0
 11
130.3249999999999886
 21
-44.4650000000000603
 31
0.0
  0
LINE
  5
847
  8
0
 10
116.8250000000000028
 20
-30.9650000000000603
 30
0.0
 11
116.8250000000000028
 21
-43.9650000000000531
 31
0.0
  0
LINE
  5
848
  8
0
 10
130.8249999999999886
 20
-30.9650000000000603
 30
0.0
 11
130.8249999999999886
 21
-43.9650000000000531
 31
0.0
  0
ARC
  5
849
  8
0
 10
117.3250000000000028
 20
-30.9650000000000603
 30
0.0
 40
0.5
 50
90.0
 51
180.0
  0
ARC
  5
84A
  8
0
 10
130.3249999999999886
 20
-30.9650000000000603
 30
0.0
 40
0.5
 50
0.0
 51
90.0
  0
ARC
  5
84B
  8
0
 10
117.3250000000000028
 20
-43.9650000000000531
 30
0.0
 40
0.5
 50
180.0
 51
270.0
  0
ARC
  5
84C
  8
0
 10
130.3249999999999886
 20
-43.9650000000000531
 30
0.0
 40
0.5
 50
270.0
 51
0.0
  0
LINE
  5
84D
  8
0
 10
136.375
 20
-30.4650000000000603
 30
0.0
 11
149.375
 21
-30.4650000000000603
 31
0.0
  0
LINE
  5
84E
  8
0
 10
136.375
 20
-44.4650000000000603
 30
0.0
 11
149.375
 21
-44.4650000000000603
 31
0.0
  0
LINE
  5
84F
  8
0
 10
135.875
 20
-30.9650000000000603
 30
0.0
 11
135.875
 21
-43.9650000000000531
 31
0.0
  0
LINE
  5
850
  8
0
 10
149.875
 20
-30.9650000000000603
 30
0.0
 11
149.875
 21
-43.9650000000000531
 31
0.0
  0
ARC
  5
851
  8
0
 10
136.375
 20
-30.9650000000000603
 30
0.0
 40
0.5
 50
90.0
 51
180.0
  0
ARC
  5
852
  8
0
 10
149.375
 20
-30.9650000000000603
 30
0.0
 40
0.5
 50
0.0
 51
90.0
  0
ARC
  5
853
  8
0
 10
136.375
 20
-43.9650000000000531
 30
0.0
 40
0.5
 50
180.0
 51
270.0
  0
ARC
  5
854
  8
0
 10
149.375
 20
-43.9650000000000531
 30
0.0
 40
0.5
 50
270.0
 51
0.0
  0
LINE
  5
855
  8
0
 10
155.4250000000000114
 20
-30.4650000000000603
 30
0.0
 11
168.4250000000000114
 21
-30.4650000000000603
 31
0.0
  0
LINE
  5
856
  8
0
 10
155.4250000000000114
 20
-44.4650000000000603
 30
0.0
 11
168.4250000000000114
 21
-44.4650000000000603
 31
0.0
  0
LINE
  5
857
  8
0
 10
154.9250000000000114
 20
-30.9650000000000603
 30
0.0
 11
154.9250000000000114
 21
-43.9650000000000531
 31
0.0
  0
LINE
  5
858
  8
0
 10
168.9250000000000114
 20
-30.9650000000000603
 30
0.0
 11
168.9250000000000114
 21
-43.9650000000000531
 31
0.0
  0
ARC
  5
859
  8
0
 10
155.4250000000000114
 20
-30.9650000000000603
 30
0.0
 40
0.5
 50
90.0
 51
180.0
  0
ARC
  5
85A
  8
0
 10
168.4250000000000114
 20
-30.9650000000000603
 30
0.0
 40
0.5
 50
0.0
 51
90.0
  0
ARC
  5
85B
  8
0
 10
155.4250000000000114
 20
-43.9650000000000531
 30
0.0
 40
0.5
 50
180.0
 51
270.0
  0
ARC
  5
85C
  8
0
 10
168.4250000000000114
 20
-43.9650000000000531
 30
0.0
 40
0.5
 50
270.0
 51
0.0
  0
LINE
  5
85D
  8
0
 10
174.4749999999999943
 20
-30.4650000000000603
 30
0.0
 11
187.4749999999999943
 21
-30.4650000000000603
 31
0.0
  0
LINE
  5
85E
  8
0
 10
174.4749999999999943
 20
-44.4650000000000603
 30
0.0
 11
187.4749999999999943
 21
-44.4650000000000603
 31
0.0
  0
LINE
  5
85F
  8
0
 10
173.9749999999999943
 20
-30.9650000000000603
 30
0.0
 11
173.9749999999999943
 21
-43.9650000000000531
 31
0.0
  0
LINE
  5
860
  8
0
 10
187.9749999999999943
 20
-30.9650000000000603
 30
0.0
 11
187.9749999999999943
 21
-43.9650000000000531
 31
0.0
  0
ARC
  5
861
  8
0
 10
174.4749999999999943
 20
-30.9650000000000603
 30
0.0
 40
0.5
 50
90.0
 51
180.0
  0
ARC
  5
862
  8
0
 10
187.4749999999999943
 20
-30.9650000000000603
 30
0.0
 40
0.5
 50
0.0
 51
90.0
  0
ARC
  5
863
  8
0
 10
174.4749999999999943
 20
-43.9650000000000531
 30
0.0
 40
0.5
 50
180.0
 51
270.0
  0
ARC
  5
864
  8
0
 10
187.4749999999999943
 20
-43.9650000000000531
 30
0.0
 40
0.5
 50
270.0
 51
0.0
  0
LINE
  5
865
  8
0
 10
193.5250000000000057
 20
-30.4650000000000603
 30
0.0
 11
206.5250000000000057
 21
-30.4650000000000603
 31
0.0
  0
LINE
  5
866
  8
0
 10
193.5250000000000057
 20
-44.4650000000000603
 30
0.0
 11
206.5250000000000057
 21
-44.4650000000000603
 31
0.0
  0
LINE
  5
867
  8
0
 10
193.0250000000000057
 20
-30.9650000000000603
 30
0.0
 11
193.0250000000000057
 21
-43.9650000000000531
 31
0.0
  0
LINE
  5
868
  8
0
 10
207.0250000000000057
 20
-30.9650000000000603
 30
0.0
 11
207.0250000000000057
 21
-43.9650000000000531
 31
0.0
  0
ARC
  5
869
  8
0
 10
193.5250000000000057
 20
-30.9650000000000603
 30
0.0
 40
0.5
 50
90.0
 51
180.0
  0
ARC
  5
86A
  8
0
 10
206.5250000000000057
 20
-30.9650000000000603
 30
0.0
 40
0.5
 50
0.0
 51
90.0
  0
ARC
  5
86B
  8
0
 10
193.5250000000000057
 20
-43.9650000000000531
 30
0.0
 40
0.5
 50
180.0
 51
270.0
  0
ARC
  5
86C
  8
0
 10
206.5250000000000057
 20
-43.9650000000000531
 30
0.0
 40
0.5
 50
270.0
 51
0.0
  0
LINE
  5
86D
  8
0
 10
212.5749999999999886
 20
-30.4650000000000603
 30
0.0
 11
225.5749999999999886
 21
-30.4650000000000603
 31
0.0
  0
LINE
  5
86E
  8
0
 10
212.5749999999999886
 20
-44.4650000000000603
 30
0.0
 11
225.5749999999999886
 21
-44.4650000000000603
 31
0.0
  0
LINE
  5
86F
  8
0
 10
212.0749999999999886
 20
-30.9650000000000603
 30
0.0
 11
212.0749999999999886
 21
-43.9650000000000531
 31
0.0
  0
LINE
  5
870
  8
0
 10
226.0749999999999886
 20
-30.9650000000000603
 30
0.0
 11
226.0749999999999886
 21
-43.9650000000000531
 31
0.0
  0
ARC
  5
871
  8
0
 10
212.5749999999999886
 20
-30.9650000000000603
 30
0.0
 40
0.5
 50
90.0
 51
180.0
  0
ARC
  5
872
  8
0
 10
225.5749999999999886
 20
-30.9650000000000603
 30
0.0
 40
0.5
 50
0.0
 51
90.0
  0
ARC
  5
873
  8
0
 10
212.5749999999999886
 20
-43.9650000000000531
 30
0.0
 40
0.5
 50
180.0
 51
270.0
  0
ARC
  5
874
  8
0
 10
225.5749999999999886
 20
-43.9650000000000531
 30
0.0
 40
0.5
 50
270.0
 51
0.0
  0
LINE
  5
875
  8
0
 10
231.625
 20
-30.4650000000000603
 30
0.0
 11
244.625
 21
-30.4650000000000603
 31
0.0
  0
LINE
  5
876
  8
0
 10
231.625
 20
-44.4650000000000603
 30
0.0
 11
244.625
 21
-44.4650000000000603
 31
0.0
  0
LINE
  5
877
  8
0
 10
231.125
 20
-30.9650000000000603
 30
0.0
 11
231.125
 21
-43.9650000000000531
 31
0.0
  0
LINE
  5
878
  8
0
 10
245.125
 20
-30.9650000000000603
 30
0.0
 11
245.125
 21
-43.9650000000000531
 31
0.0
  0
ARC
  5
879
  8
0
 10
231.625
 20
-30.9650000000000603
 30
0.0
 40
0.5
 50
90.0
 51
180.0
  0
ARC
  5
87A
  8
0
 10
244.625
 20
-30.9650000000000603
 30
0.0
 40
0.5
 50
0.0
 51
90.0
  0
ARC
  5
87B
  8
0
 10
231.625
 20
-43.9650000000000531
 30
0.0
 40
0.5
 50
180.0
 51
270.0
  0
ARC
  5
87C
  8
0
 10
244.625
 20
-43.9650000000000531
 30
0.0
 40
0.5
 50
270.0
 51
0.0
  0
LINE
  5
87D
  8
0
 10
293.8550000000000182
 20
-30.4650000000000603
 30
0.0
 11
306.8550000000000182
 21
-30.4650000000000603
 31
0.0
  0
LINE
  5
87E
  8
0
 10
293.8550000000000182
 20
-44.4650000000000603
 30
0.0
 11
306.8550000000000182
 21
-44.4650000000000603
 31
0.0
  0
LINE
  5
87F
  8
0
 10
293.3550000000000182
 20
-30.9650000000000603
 30
0.0
 11
293.3550000000000182
 21
-43.9650000000000531
 31
0.0
  0
LINE
  5
880
  8
0
 10
307.3550000000000182
 20
-30.9650000000000603
 30
0.0
 11
307.3550000000000182
 21
-43.9650000000000531
 31
0.0
  0
ARC
  5
881
  8
0
 10
293.8550000000000182
 20
-30.9650000000000603
 30
0.0
 40
0.5
 50
90.0
 51
180.0
  0
ARC
  5
882
  8
0
 10
306.8550000000000182
 20
-30.9650000000000603
 30
0.0
 40
0.5
 50
0.0
 51
90.0
  0
ARC
  5
883
  8
0
 10
293.8550000000000182
 20
-43.9650000000000531
 30
0.0
 40
0.5
 50
180.0
 51
270.0
  0
ARC
  5
884
  8
0
 10
306.8550000000000182
 20
-43.9650000000000531
 30
0.0
 40
0.5
 50
270.0
 51
0.0
  0
LINE
  5
885
  8
0
 10
312.9049999999999727
 20
-30.4650000000000603
 30
0.0
 11
325.9049999999999727
 21
-30.4650000000000603
 31
0.0
  0
LINE
  5
886
  8
0
 10
312.9049999999999727
 20
-44.4650000000000603
 30
0.0
 11
325.9049999999999727
 21
-44.4650000000000603
 31
0.0
  0
LINE
  5
887
  8
0
 10
312.4049999999999727
 20
-30.9650000000000603
 30
0.0
 11
312.4049999999999727
 21
-43.9650000000000531
 31
0.0
  0
LINE
  5
888
  8
0
 10
326.4049999999999727
 20
-30.9650000000000603
 30
0.0
 11
326.4049999999999727
 21
-43.9650000000000531
 31
0.0
  0
ARC
  5
889
  8
0
 10
312.9049999999999727
 20
-30.9650000000000603
 30
0.0
 40
0.5
 50
90.0
 51
180.0
  0
ARC
  5
88A
  8
0
 10
325.9049999999999727
 20
-30.9650000000000603
 30
0.0
 40
0.5
 50
0.0
 51
90.0
  0
ARC
  5
88B
  8
0
 10
312.9049999999999727
 20
-43.9650000000000531
 30
0.0
 40
0.5
 50
180.0
 51
270.0
  0
ARC
  5
88C
  8
0
 10
325.9049999999999727
 20
-43.9650000000000531
 30
0.0
 40
0.5
 50
270.0
 51
0.0
  0
LINE
  5
88D
  8
0
 10
331.9549999999999841
 20
-30.4650000000000603
 30
0.0
 11
344.9549999999999841
 21
-30.4650000000000603
 31
0.0
  0
LINE
  5
88E
  8
0
 10
331.9549999999999841
 20
-44.4650000000000603
 30
0.0
 11
344.9549999999999841
 21
-44.4650000000000603
 31
0.0
  0
LINE
  5
88F
  8
0
 10
331.4549999999999841
 20
-30.9650000000000603
 30
0.0
 11
331.4549999999999841
 21
-43.9650000000000531
 31
0.0
  0
LINE
  5
890
  8
0
 10
345.4549999999999841
 20
-30.9650000000000603
 30
0.0
 11
345.4549999999999841
 21
-43.9650000000000531
 31
0.0
  0
ARC
  5
891
  8
0
 10
331.9549999999999841
 20
-30.9650000000000603
 30
0.0
 40
0.5
 50
90.0
 51
180.0
  0
ARC
  5
892
  8
0
 10
344.9549999999999841
 20
-30.9650000000000603
 30
0.0
 40
0.5
 50
0.0
 51
90.0
  0
ARC
  5
893
  8
0
 10
331.9549999999999841
 20
-43.9650000000000531
 30
0.0
 40
0.5
 50
180.0
 51
270.0
  0
ARC
  5
894
  8
0
 10
344.9549999999999841
 20
-43.9650000000000531
 30
0.0
 40
0.5
 50
270.0
 51
0.0
  0
LINE
  5
895
  8
0
 10
7.7875000000000014
 20
-49.5150000000000574
 30
0.0
 11
20.7875000000000014
 21
-49.5150000000000574
 31
0.0
  0
LINE
  5
896
  8
0
 10
7.7875000000000014
 20
-63.5150000000000503
 30
0.0
 11
20.7875000000000014
 21
-63.5150000000000503
 31
0.0
  0
LINE
  5
897
  8
0
 10
7.2875000000000014
 20
-50.0150000000000574
 30
0.0
 11
7.2875000000000014
 21
-63.0150000000000432
 31
0.0
  0
LINE
  5
898
  8
0
 10
21.2875000000000014
 20
-50.0150000000000574
 30
0.0
 11
21.2875000000000014
 21
-63.0150000000000432
 31
0.0
  0
ARC
  5
899
  8
0
 10
7.7875000000000014
 20
-50.0150000000000574
 30
0.0
 40
0.5
 50
90.0
 51
180.0
  0
ARC
  5
89A
  8
0
 10
20.7875000000000014
 20
-50.0150000000000574
 30
0.0
 40
0.5
 50
0.0
 51
90.0
  0
ARC
  5
89B
  8
0
 10
7.7875000000000014
 20
-63.0150000000000432
 30
0.0
 40
0.5
 50
180.0
 51
270.0
  0
ARC
  5
89C
  8
0
 10
20.7875000000000014
 20
-63.0150000000000432
 30
0.0
 40
0.5
 50
270.0
 51
0.0
  0
LINE
  5
89D
  8
0
 10
31.6000000000000014
 20
-49.5150000000000574
 30
0.0
 11
44.5999999999999872
 21
-49.5150000000000574
 31
0.0
  0
LINE
  5
89E
  8
0
 10
31.6000000000000014
 20
-63.5150000000000503
 30
0.0
 11
44.5999999999999872
 21
-63.5150000000000503
 31
0.0
  0
LINE
  5
89F
  8
0
 10
31.1000000000000014
 20
-50.0150000000000574
 30
0.0
 11
31.1000000000000014
 21
-63.0150000000000432
 31
0.0
  0
LINE
  5
8A0
  8
0
 10
45.1000000000000014
 20
-50.0150000000000574
 30
0.0
 11
45.1000000000000014
 21
-63.0150000000000432
 31
0.0
  0
ARC
  5
8A1
  8
0
 10
31.6000000000000014
 20
-50.0150000000000574
 30
0.0
 40
0.5
 50
90.0
 51
180.0
  0
ARC
  5
8A2
  8
0
 10
44.5999999999999872
 20
-50.0150000000000574
 30
0.0
 40
0.5
 50
0.0
 51
90.0
  0
ARC
  5
8A3
  8
0
 10
31.6000000000000014
 20
-63.0150000000000432
 30
0.0
 40
0.5
 50
180.0
 51
270.0
  0
ARC
  5
8A4
  8
0
 10
44.5999999999999872
 20
-63.0150000000000432
 30
0.0
 40
0.5
 50
270.0
 51
0.0
  0
LINE
  5
8A5
  8
0
 10
50.6499999999999986
 20
-49.5150000000000574
 30
0.0
 11
63.6499999999999986
 21
-49.5150000000000574
 31
0.0
  0
LINE
  5
8A6
  8
0
 10
50.6499999999999986
 20
-63.5150000000000503
 30
0.0
 11
63.6499999999999986
 21
-63.5150000000000503
 31
0.0
  0
LINE
  5
8A7
  8
0
 10
50.1499999999999986
 20
-50.0150000000000574
 30
0.0
 11
50.1499999999999986
 21
-63.0150000000000432
 31
0.0
  0
LINE
  5
8A8
  8
0
 10
64.1500000000000199
 20
-50.0150000000000574
 30
0.0
 11
64.1500000000000199
 21
-63.0150000000000432
 31
0.0
  0
ARC
  5
8A9
  8
0
 10
50.6499999999999986
 20
-50.0150000000000574
 30
0.0
 40
0.5
 50
90.0
 51
180.0
  0
ARC
  5
8AA
  8
0
 10
63.6499999999999986
 20
-50.0150000000000574
 30
0.0
 40
0.5
 50
0.0
 51
90.0
  0
ARC
  5
8AB
  8
0
 10
50.6499999999999986
 20
-63.0150000000000432
 30
0.0
 40
0.5
 50
180.0
 51
270.0
  0
ARC
  5
8AC
  8
0
 10
63.6499999999999986
 20
-63.0150000000000432
 30
0.0
 40
0.5
 50
270.0
 51
0.0
  0
LINE
  5
8AD
  8
0
 10
69.7000000000000028
 20
-49.5150000000000574
 30
0.0
 11
82.7000000000000171
 21
-49.5150000000000574
 31
0.0
  0
LINE
  5
8AE
  8
0
 10
69.7000000000000028
 20
-63.5150000000000503
 30
0.0
 11
82.7000000000000171
 21
-63.5150000000000503
 31
0.0
  0
LINE
  5
8AF
  8
0
 10
69.2000000000000028
 20
-50.0150000000000574
 30
0.0
 11
69.2000000000000028
 21
-63.0150000000000432
 31
0.0
  0
LINE
  5
8B0
  8
0
 10
83.2000000000000028
 20
-50.0150000000000574
 30
0.0
 11
83.2000000000000028
 21
-63.0150000000000432
 31
0.0
  0
ARC
  5
8B1
  8
0
 10
69.7000000000000028
 20
-50.0150000000000574
 30
0.0
 40
0.5
 50
90.0
 51
180.0
  0
ARC
  5
8B2
  8
0
 10
82.7000000000000171
 20
-50.0150000000000574
 30
0.0
 40
0.5
 50
0.0
 51
90.0
  0
ARC
  5
8B3
  8
0
 10
69.7000000000000028
 20
-63.0150000000000432
 30
0.0
 40
0.5
 50
180.0
 51
270.0
  0
ARC
  5
8B4
  8
0
 10
82.7000000000000171
 20
-63.0150000000000432
 30
0.0
 40
0.5
 50
270.0
 51
0.0
  0
LINE
  5
8B5
  8
0
 10
88.75
 20
-49.5150000000000574
 30
0.0
 11
101.75
 21
-49.5150000000000574
 31
0.0
  0
LINE
  5
8B6
  8
0
 10
88.75
 20
-63.5150000000000503
 30
0.0
 11
101.75
 21
-63.5150000000000503
 31
0.0
  0
LINE
  5
8B7
  8
0
 10
88.2500000000000142
 20
-50.0150000000000574
 30
0.0
 11
88.2500000000000142
 21
-63.0150000000000432
 31
0.0
  0
LINE
  5
8B8
  8
0
 10
102.25
 20
-50.0150000000000574
 30
0.0
 11
102.25
 21
-63.0150000000000432
 31
0.0
  0
ARC
  5
8B9
  8
0
 10
88.75
 20
-50.0150000000000574
 30
0.0
 40
0.5
 50
90.0
 51
180.0
  0
ARC
  5
8BA
  8
0
 10
101.75
 20
-50.0150000000000574
 30
0.0
 40
0.5
 50
0.0
 51
90.0
  0
ARC
  5
8BB
  8
0
 10
88.75
 20
-63.0150000000000432
 30
0.0
 40
0.5
 50
180.0
 51
270.0
  0
ARC
  5
8BC
  8
0
 10
101.75
 20
-63.0150000000000432
 30
0.0
 40
0.5
 50
270.0
 51
0.0
  0
LINE
  5
8BD
  8
0
 10
107.7999999999999972
 20
-49.5150000000000574
 30
0.0
 11
120.7999999999999972
 21
-49.5150000000000574
 31
0.0
  0
LINE
  5
8BE
  8
0
 10
107.7999999999999972
 20
-63.5150000000000503
 30
0.0
 11
120.7999999999999972
 21
-63.5150000000000503
 31
0.0
  0
LINE
  5
8BF
  8
0
 10
107.2999999999999972
 20
-50.0150000000000574
 30
0.0
 11
107.2999999999999972
 21
-63.0150000000000432
 31
0.0
  0
LINE
  5
8C0
  8
0
 10
121.2999999999999972
 20
-50.0150000000000574
 30
0.0
 11
121.2999999999999972
 21
-63.0150000000000432
 31
0.0
  0
ARC
  5
8C1
  8
0
 10
107.7999999999999972
 20
-50.0150000000000574
 30
0.0
 40
0.5
 50
90.0
 51
180.0
  0
ARC
  5
8C2
  8
0
 10
120.7999999999999972
 20
-50.0150000000000574
 30
0.0
 40
0.5
 50
0.0
 51
90.0
  0
ARC
  5
8C3
  8
0
 10
107.7999999999999972
 20
-63.0150000000000432
 30
0.0
 40
0.5
 50
180.0
 51
270.0
  0
ARC
  5
8C4
  8
0
 10
120.7999999999999972
 20
-63.0150000000000432
 30
0.0
 40
0.5
 50
270.0
 51
0.0
  0
LINE
  5
8C5
  8
0
 10
126.8499999999999943
 20
-49.5150000000000574
 30
0.0
 11
139.8499999999999943
 21
-49.5150000000000574
 31
0.0
  0
LINE
  5
8C6
  8
0
 10
126.8499999999999943
 20
-63.5150000000000503
 30
0.0
 11
139.8499999999999943
 21
-63.5150000000000503
 31
0.0
  0
LINE
  5
8C7
  8
0
 10
126.3499999999999943
 20
-50.0150000000000574
 30
0.0
 11
126.3499999999999943
 21
-63.0150000000000432
 31
0.0
  0
LINE
  5
8C8
  8
0
 10
140.3499999999999943
 20
-50.0150000000000574
 30
0.0
 11
140.3499999999999943
 21
-63.0150000000000432
 31
0.0
  0
ARC
  5
8C9
  8
0
 10
126.8499999999999943
 20
-50.0150000000000574
 30
0.0
 40
0.5
 50
90.0
 51
180.0
  0
ARC
  5
8CA
  8
0
 10
139.8499999999999943
 20
-50.0150000000000574
 30
0.0
 40
0.5
 50
0.0
 51
90.0
  0
ARC
  5
8CB
  8
0
 10
126.8499999999999943
 20
-63.0150000000000432
 30
0.0
 40
0.5
 50
180.0
 51
270.0
  0
ARC
  5
8CC
  8
0
 10
139.8499999999999943
 20
-63.0150000000000432
 30
0.0
 40
0.5
 50
270.0
 51
0.0
  0
LINE
  5
8CD
  8
0
 10
145.9000000000000057
 20
-49.5150000000000574
 30
0.0
 11
158.9000000000000057
 21
-49.5150000000000574
 31
0.0
  0
LINE
  5
8CE
  8
0
 10
145.9000000000000057
 20
-63.5150000000000503
 30
0.0
 11
158.9000000000000057
 21
-63.5150000000000503
 31
0.0
  0
LINE
  5
8CF
  8
0
 10
145.4000000000000057
 20
-50.0150000000000574
 30
0.0
 11
145.4000000000000057
 21
-63.0150000000000432
 31
0.0
  0
LINE
  5
8D0
  8
0
 10
159.4000000000000057
 20
-50.0150000000000574
 30
0.0
 11
159.4000000000000057
 21
-63.0150000000000432
 31
0.0
  0
ARC
  5
8D1
  8
0
 10
145.9000000000000057
 20
-50.0150000000000574
 30
0.0
 40
0.5
 50
90.0
 51
180.0
  0
ARC
  5
8D2
  8
0
 10
158.9000000000000057
 20
-50.0150000000000574
 30
0.0
 40
0.5
 50
0.0
 51
90.0
  0
ARC
  5
8D3
  8
0
 10
145.9000000000000057
 20
-63.0150000000000432
 30
0.0
 40
0.5
 50
180.0
 51
270.0
  0
ARC
  5
8D4
  8
0
 10
158.9000000000000057
 20
-63.0150000000000432
 30
0.0
 40
0.5
 50
270.0
 51
0.0
  0
LINE
  5
8D5
  8
0
 10
164.9499999999999034
 20
-49.5150000000000574
 30
0.0
 11
177.9499999999999034
 21
-49.5150000000000574
 31
0.0
  0
LINE
  5
8D6
  8
0
 10
164.9499999999999034
 20
-63.5150000000000503
 30
0.0
 11
177.9499999999999034
 21
-63.5150000000000503
 31
0.0
  0
LINE
  5
8D7
  8
0
 10
164.4499999999999034
 20
-50.0150000000000574
 30
0.0
 11
164.4499999999999034
 21
-63.0150000000000432
 31
0.0
  0
LINE
  5
8D8
  8
0
 10
178.4499999999999034
 20
-50.0150000000000574
 30
0.0
 11
178.4499999999999034
 21
-63.0150000000000432
 31
0.0
  0
ARC
  5
8D9
  8
0
 10
164.9499999999999034
 20
-50.0150000000000574
 30
0.0
 40
0.5
 50
90.0
 51
180.0
  0
ARC
  5
8DA
  8
0
 10
177.9499999999999034
 20
-50.0150000000000574
 30
0.0
 40
0.5
 50
0.0
 51
90.0
  0
ARC
  5
8DB
  8
0
 10
164.9499999999999034
 20
-63.0150000000000432
 30
0.0
 40
0.5
 50
180.0
 51
270.0
  0
ARC
  5
8DC
  8
0
 10
177.9499999999999034
 20
-63.0150000000000432
 30
0.0
 40
0.5
 50
270.0
 51
0.0
  0
LINE
  5
8DD
  8
0
 10
184.0
 20
-49.5150000000000574
 30
0.0
 11
197.0
 21
-49.5150000000000574
 31
0.0
  0
LINE
  5
8DE
  8
0
 10
184.0
 20
-63.5150000000000503
 30
0.0
 11
197.0
 21
-63.5150000000000503
 31
0.0
  0
LINE
  5
8DF
  8
0
 10
183.5
 20
-50.0150000000000574
 30
0.0
 11
183.5
 21
-63.0150000000000432
 31
0.0
  0
LINE
  5
8E0
  8
0
 10
197.5
 20
-50.0150000000000574
 30
0.0
 11
197.5
 21
-63.0150000000000432
 31
0.0
  0
ARC
  5
8E1
  8
0
 10
184.0
 20
-50.0150000000000574
 30
0.0
 40
0.5
 50
90.0
 51
180.0
  0
ARC
  5
8E2
  8
0
 10
197.0
 20
-50.0150000000000574
 30
0.0
 40
0.5
 50
0.0
 51
90.0
  0
ARC
  5
8E3
  8
0
 10
184.0
 20
-63.0150000000000432
 30
0.0
 40
0.5
 50
180.0
 51
270.0
  0
ARC
  5
8E4
  8
0
 10
197.0
 20
-63.0150000000000432
 30
0.0
 40
0.5
 50
270.0
 51
0.0
  0
LINE
  5
8E5
  8
0
 10
203.0500000000000114
 20
-49.5150000000000574
 30
0.0
 11
216.0500000000000114
 21
-49.5150000000000574
 31
0.0
  0
LINE
  5
8E6
  8
0
 10
203.0500000000000114
 20
-63.5150000000000503
 30
0.0
 11
216.0500000000000114
 21
-63.5150000000000503
 31
0.0
  0
LINE
  5
8E7
  8
0
 10
202.5500000000000114
 20
-50.0150000000000574
 30
0.0
 11
202.5500000000000114
 21
-63.0150000000000432
 31
0.0
  0
LINE
  5
8E8
  8
0
 10
216.5500000000000114
 20
-50.0150000000000574
 30
0.0
 11
216.5500000000000114
 21
-63.0150000000000432
 31
0.0
  0
ARC
  5
8E9
  8
0
 10
203.0500000000000114
 20
-50.0150000000000574
 30
0.0
 40
0.5
 50
90.0
 51
180.0
  0
ARC
  5
8EA
  8
0
 10
216.0500000000000114
 20
-50.0150000000000574
 30
0.0
 40
0.5
 50
0.0
 51
90.0
  0
ARC
  5
8EB
  8
0
 10
203.0500000000000114
 20
-63.0150000000000432
 30
0.0
 40
0.5
 50
180.0
 51
270.0
  0
ARC
  5
8EC
  8
0
 10
216.0500000000000114
 20
-63.0150000000000432
 30
0.0
 40
0.5
 50
270.0
 51
0.0
  0
LINE
  5
8ED
  8
0
 10
222.0999999999999943
 20
-49.5150000000000574
 30
0.0
 11
235.0999999999999943
 21
-49.5150000000000574
 31
0.0
  0
LINE
  5
8EE
  8
0
 10
222.0999999999999943
 20
-63.5150000000000503
 30
0.0
 11
235.0999999999999943
 21
-63.5150000000000503
 31
0.0
  0
LINE
  5
8EF
  8
0
 10
221.5999999999999943
 20
-50.0150000000000574
 30
0.0
 11
221.5999999999999943
 21
-63.0150000000000432
 31
0.0
  0
LINE
  5
8F0
  8
0
 10
235.5999999999999943
 20
-50.0150000000000574
 30
0.0
 11
235.5999999999999943
 21
-63.0150000000000432
 31
0.0
  0
ARC
  5
8F1
  8
0
 10
222.0999999999999943
 20
-50.0150000000000574
 30
0.0
 40
0.5
 50
90.0
 51
180.0
  0
ARC
  5
8F2
  8
0
 10
235.0999999999999943
 20
-50.0150000000000574
 30
0.0
 40
0.5
 50
0.0
 51
90.0
  0
ARC
  5
8F3
  8
0
 10
222.0999999999999943
 20
-63.0150000000000432
 30
0.0
 40
0.5
 50
180.0
 51
270.0
  0
ARC
  5
8F4
  8
0
 10
235.0999999999999943
 20
-63.0150000000000432
 30
0.0
 40
0.5
 50
270.0
 51
0.0
  0
LINE
  5
8F5
  8
0
 10
241.1500000000000057
 20
-49.5150000000000574
 30
0.0
 11
254.1500000000000057
 21
-49.5150000000000574
 31
0.0
  0
LINE
  5
8F6
  8
0
 10
241.1500000000000057
 20
-63.5150000000000503
 30
0.0
 11
254.1500000000000057
 21
-63.5150000000000503
 31
0.0
  0
LINE
  5
8F7
  8
0
 10
240.6500000000000057
 20
-50.0150000000000574
 30
0.0
 11
240.6500000000000057
 21
-63.0150000000000432
 31
0.0
  0
LINE
  5
8F8
  8
0
 10
254.6500000000000057
 20
-50.0150000000000574
 30
0.0
 11
254.6500000000000057
 21
-63.0150000000000432
 31
0.0
  0
ARC
  5
8F9
  8
0
 10
241.1500000000000057
 20
-50.0150000000000574
 30
0.0
 40
0.5
 50
90.0
 51
180.0
  0
ARC
  5
8FA
  8
0
 10
254.1500000000000057
 20
-50.0150000000000574
 30
0.0
 40
0.5
 50
0.0
 51
90.0
  0
ARC
  5
8FB
  8
0
 10
241.1500000000000057
 20
-63.0150000000000432
 30
0.0
 40
0.5
 50
180.0
 51
270.0
  0
ARC
  5
8FC
  8
0
 10
254.1500000000000057
 20
-63.0150000000000432
 30
0.0
 40
0.5
 50
270.0
 51
0.0
  0
LINE
  5
8FD
  8
0
 10
264.9624999999999773
 20
-49.5150000000000574
 30
0.0
 11
277.9624999999999773
 21
-49.5150000000000574
 31
0.0
  0
LINE
  5
8FE
  8
0
 10
264.9624999999999773
 20
-63.5150000000000503
 30
0.0
 11
277.9624999999999773
 21
-63.5150000000000503
 31
0.0
  0
LINE
  5
8FF
  8
0
 10
264.4624999999999773
 20
-50.0150000000000574
 30
0.0
 11
264.4624999999999773
 21
-63.0150000000000432
 31
0.0
  0
LINE
  5
900
  8
0
 10
278.4624999999999773
 20
-50.0150000000000574
 30
0.0
 11
278.4624999999999773
 21
-63.0150000000000432
 31
0.0
  0
ARC
  5
901
  8
0
 10
264.9624999999999773
 20
-50.0150000000000574
 30
0.0
 40
0.5
 50
90.0
 51
180.0
  0
ARC
  5
902
  8
0
 10
277.9624999999999773
 20
-50.0150000000000574
 30
0.0
 40
0.5
 50
0.0
 51
90.0
  0
ARC
  5
903
  8
0
 10
264.9624999999999773
 20
-63.0150000000000432
 30
0.0
 40
0.5
 50
180.0
 51
270.0
  0
ARC
  5
904
  8
0
 10
277.9624999999999773
 20
-63.0150000000000432
 30
0.0
 40
0.5
 50
270.0
 51
0.0
  0
LINE
  5
905
  8
0
 10
293.8550000000000182
 20
-49.5150000000000574
 30
0.0
 11
306.8550000000000182
 21
-49.5150000000000574
 31
0.0
  0
LINE
  5
906
  8
0
 10
293.8550000000000182
 20
-63.5150000000000503
 30
0.0
 11
306.8550000000000182
 21
-63.5150000000000503
 31
0.0
  0
LINE
  5
907
  8
0
 10
293.3550000000000182
 20
-50.0150000000000574
 30
0.0
 11
293.3550000000000182
 21
-63.0150000000000432
 31
0.0
  0
LINE
  5
908
  8
0
 10
307.3550000000000182
 20
-50.0150000000000574
 30
0.0
 11
307.3550000000000182
 21
-63.0150000000000432
 31
0.0
  0
ARC
  5
909
  8
0
 10
293.8550000000000182
 20
-50.0150000000000574
 30
0.0
 40
0.5
 50
90.0
 51
180.0
  0
ARC
  5
90A
  8
0
 10
306.8550000000000182
 20
-50.0150000000000574
 30
0.0
 40
0.5
 50
0.0
 51
90.0
  0
ARC
  5
90B
  8
0
 10
293.8550000000000182
 20
-63.0150000000000432
 30
0.0
 40
0.5
 50
180.0
 51
270.0
  0
ARC
  5
90C
  8
0
 10
306.8550000000000182
 20
-63.0150000000000432
 30
0.0
 40
0.5
 50
270.0
 51
0.0
  0
LINE
  5
90D
  8
0
 10
312.9049999999999727
 20
-49.5150000000000574
 30
0.0
 11
325.9049999999999727
 21
-49.5150000000000574
 31
0.0
  0
LINE
  5
90E
  8
0
 10
312.9049999999999727
 20
-63.5150000000000503
 30
0.0
 11
325.9049999999999727
 21
-63.5150000000000503
 31
0.0
  0
LINE
  5
90F
  8
0
 10
312.4049999999999727
 20
-50.0150000000000574
 30
0.0
 11
312.4049999999999727
 21
-63.0150000000000432
 31
0.0
  0
LINE
  5
910
  8
0
 10
326.4049999999999727
 20
-50.0150000000000574
 30
0.0
 11
326.4049999999999727
 21
-63.0150000000000432
 31
0.0
  0
ARC
  5
911
  8
0
 10
312.9049999999999727
 20
-50.0150000000000574
 30
0.0
 40
0.5
 50
90.0
 51
180.0
  0
ARC
  5
912
  8
0
 10
325.9049999999999727
 20
-50.0150000000000574
 30
0.0
 40
0.5
 50
0.0
 51
90.0
  0
ARC
  5
913
  8
0
 10
312.9049999999999727
 20
-63.0150000000000432
 30
0.0
 40
0.5
 50
180.0
 51
270.0
  0
ARC
  5
914
  8
0
 10
325.9049999999999727
 20
-63.0150000000000432
 30
0.0
 40
0.5
 50
270.0
 51
0.0
  0
LINE
  5
915
  8
0
 10
331.9549999999999841
 20
-49.5150000000000574
 30
0.0
 11
344.9549999999999841
 21
-49.5150000000000574
 31
0.0
  0
LINE
  5
916
  8
0
 10
331.9549999999999841
 20
-63.5150000000000503
 30
0.0
 11
344.9549999999999841
 21
-63.5150000000000503
 31
0.0
  0
LINE
  5
917
  8
0
 10
331.4549999999999841
 20
-50.0150000000000574
 30
0.0
 11
331.4549999999999841
 21
-63.0150000000000432
 31
0.0
  0
LINE
  5
918
  8
0
 10
345.4549999999999841
 20
-50.0150000000000574
 30
0.0
 11
345.4549999999999841
 21
-63.0150000000000432
 31
0.0
  0
ARC
  5
919
  8
0
 10
331.9549999999999841
 20
-50.0150000000000574
 30
0.0
 40
0.5
 50
90.0
 51
180.0
  0
ARC
  5
91A
  8
0
 10
344.9549999999999841
 20
-50.0150000000000574
 30
0.0
 40
0.5
 50
0.0
 51
90.0
  0
ARC
  5
91B
  8
0
 10
331.9549999999999841
 20
-63.0150000000000432
 30
0.0
 40
0.5
 50
180.0
 51
270.0
  0
ARC
  5
91C
  8
0
 10
344.9549999999999841
 20
-63.0150000000000432
 30
0.0
 40
0.5
 50
270.0
 51
0.0
  0
LINE
  5
91D
  8
0
 10
10.1687499999999993
 20
-68.5650000000000546
 30
0.0
 11
23.1687499999999993
 21
-68.5650000000000546
 31
0.0
  0
LINE
  5
91E
  8
0
 10
10.1687499999999993
 20
-82.5650000000000546
 30
0.0
 11
23.1687499999999993
 21
-82.5650000000000546
 31
0.0
  0
LINE
  5
91F
  8
0
 10
9.6687499999999993
 20
-69.0650000000000546
 30
0.0
 11
9.6687499999999993
 21
-82.0650000000000546
 31
0.0
  0
LINE
  5
920
  8
0
 10
23.6687499999999993
 20
-69.0650000000000546
 30
0.0
 11
23.6687499999999993
 21
-82.0650000000000546
 31
0.0
  0
ARC
  5
921
  8
0
 10
10.1687499999999993
 20
-69.0650000000000546
 30
0.0
 40
0.5
 50
90.0
 51
180.0
  0
ARC
  5
922
  8
0
 10
23.1687499999999993
 20
-69.0650000000000546
 30
0.0
 40
0.5
 50
0.0
 51
90.0
  0
ARC
  5
923
  8
0
 10
10.1687499999999993
 20
-82.0650000000000546
 30
0.0
 40
0.5
 50
180.0
 51
270.0
  0
ARC
  5
924
  8
0
 10
23.1687499999999993
 20
-82.0650000000000546
 30
0.0
 40
0.5
 50
270.0
 51
0.0
  0
LINE
  5
925
  8
0
 10
36.3624999999999972
 20
-68.5650000000000546
 30
0.0
 11
49.3624999999999972
 21
-68.5650000000000546
 31
0.0
  0
LINE
  5
926
  8
0
 10
36.3624999999999972
 20
-82.5650000000000546
 30
0.0
 11
49.3624999999999972
 21
-82.5650000000000546
 31
0.0
  0
LINE
  5
927
  8
0
 10
35.8624999999999972
 20
-69.0650000000000546
 30
0.0
 11
35.8624999999999972
 21
-82.0650000000000546
 31
0.0
  0
LINE
  5
928
  8
0
 10
49.8624999999999972
 20
-69.0650000000000546
 30
0.0
 11
49.8624999999999972
 21
-82.0650000000000546
 31
0.0
  0
ARC
  5
929
  8
0
 10
36.3624999999999972
 20
-69.0650000000000546
 30
0.0
 40
0.5
 50
90.0
 51
180.0
  0
ARC
  5
92A
  8
0
 10
49.3624999999999972
 20
-69.0650000000000546
 30
0.0
 40
0.5
 50
0.0
 51
90.0
  0
ARC
  5
92B
  8
0
 10
36.3624999999999972
 20
-82.0650000000000546
 30
0.0
 40
0.5
 50
180.0
 51
270.0
  0
ARC
  5
92C
  8
0
 10
49.3624999999999972
 20
-82.0650000000000546
 30
0.0
 40
0.5
 50
270.0
 51
0.0
  0
LINE
  5
92D
  8
0
 10
55.4125000000000014
 20
-68.5650000000000546
 30
0.0
 11
68.4124999999999943
 21
-68.5650000000000546
 31
0.0
  0
LINE
  5
92E
  8
0
 10
55.4125000000000014
 20
-82.5650000000000546
 30
0.0
 11
68.4124999999999943
 21
-82.5650000000000546
 31
0.0
  0
LINE
  5
92F
  8
0
 10
54.9125000000000014
 20
-69.0650000000000546
 30
0.0
 11
54.9125000000000014
 21
-82.0650000000000546
 31
0.0
  0
LINE
  5
930
  8
0
 10
68.9124999999999943
 20
-69.0650000000000546
 30
0.0
 11
68.9124999999999943
 21
-82.0650000000000546
 31
0.0
  0
ARC
  5
931
  8
0
 10
55.4125000000000014
 20
-69.0650000000000546
 30
0.0
 40
0.5
 50
90.0
 51
180.0
  0
ARC
  5
932
  8
0
 10
68.4124999999999943
 20
-69.0650000000000546
 30
0.0
 40
0.5
 50
0.0
 51
90.0
  0
ARC
  5
933
  8
0
 10
55.4125000000000014
 20
-82.0650000000000546
 30
0.0
 40
0.5
 50
180.0
 51
270.0
  0
ARC
  5
934
  8
0
 10
68.4124999999999943
 20
-82.0650000000000546
 30
0.0
 40
0.5
 50
270.0
 51
0.0
  0
LINE
  5
935
  8
0
 10
74.4625000000000057
 20
-68.5650000000000546
 30
0.0
 11
87.4625000000000057
 21
-68.5650000000000546
 31
0.0
  0
LINE
  5
936
  8
0
 10
74.4625000000000057
 20
-82.5650000000000546
 30
0.0
 11
87.4625000000000057
 21
-82.5650000000000546
 31
0.0
  0
LINE
  5
937
  8
0
 10
73.9625000000000057
 20
-69.0650000000000546
 30
0.0
 11
73.9625000000000057
 21
-82.0650000000000546
 31
0.0
  0
LINE
  5
938
  8
0
 10
87.9625000000000057
 20
-69.0650000000000546
 30
0.0
 11
87.9625000000000057
 21
-82.0650000000000546
 31
0.0
  0
ARC
  5
939
  8
0
 10
74.4625000000000057
 20
-69.0650000000000546
 30
0.0
 40
0.5
 50
90.0
 51
180.0
  0
ARC
  5
93A
  8
0
 10
87.4625000000000057
 20
-69.0650000000000546
 30
0.0
 40
0.5
 50
0.0
 51
90.0
  0
ARC
  5
93B
  8
0
 10
74.4625000000000057
 20
-82.0650000000000546
 30
0.0
 40
0.5
 50
180.0
 51
270.0
  0
ARC
  5
93C
  8
0
 10
87.4625000000000057
 20
-82.0650000000000546
 30
0.0
 40
0.5
 50
270.0
 51
0.0
  0
LINE
  5
93D
  8
0
 10
93.5125000000000028
 20
-68.5650000000000546
 30
0.0
 11
106.5125000000000028
 21
-68.5650000000000546
 31
0.0
  0
LINE
  5
93E
  8
0
 10
93.5125000000000028
 20
-82.5650000000000546
 30
0.0
 11
106.5125000000000028
 21
-82.5650000000000546
 31
0.0
  0
LINE
  5
93F
  8
0
 10
93.0125000000000171
 20
-69.0650000000000546
 30
0.0
 11
93.0125000000000171
 21
-82.0650000000000546
 31
0.0
  0
LINE
  5
940
  8
0
 10
107.0125000000000028
 20
-69.0650000000000546
 30
0.0
 11
107.0125000000000028
 21
-82.0650000000000546
 31
0.0
  0
ARC
  5
941
  8
0
 10
93.5125000000000028
 20
-69.0650000000000546
 30
0.0
 40
0.5
 50
90.0
 51
180.0
  0
ARC
  5
942
  8
0
 10
106.5125000000000028
 20
-69.0650000000000546
 30
0.0
 40
0.5
 50
0.0
 51
90.0
  0
ARC
  5
943
  8
0
 10
93.5125000000000028
 20
-82.0650000000000546
 30
0.0
 40
0.5
 50
180.0
 51
270.0
  0
ARC
  5
944
  8
0
 10
106.5125000000000028
 20
-82.0650000000000546
 30
0.0
 40
0.5
 50
270.0
 51
0.0
  0
LINE
  5
945
  8
0
 10
112.5625
 20
-68.5650000000000546
 30
0.0
 11
125.5625
 21
-68.5650000000000546
 31
0.0
  0
LINE
  5
946
  8
0
 10
112.5625
 20
-82.5650000000000546
 30
0.0
 11
125.5625
 21
-82.5650000000000546
 31
0.0
  0
LINE
  5
947
  8
0
 10
112.0625
 20
-69.0650000000000546
 30
0.0
 11
112.0625
 21
-82.0650000000000546
 31
0.0
  0
LINE
  5
948
  8
0
 10
126.0625
 20
-69.0650000000000546
 30
0.0
 11
126.0625
 21
-82.0650000000000546
 31
0.0
  0
ARC
  5
949
  8
0
 10
112.5625
 20
-69.0650000000000546
 30
0.0
 40
0.5
 50
90.0
 51
180.0
  0
ARC
  5
94A
  8
0
 10
125.5625
 20
-69.0650000000000546
 30
0.0
 40
0.5
 50
0.0
 51
90.0
  0
ARC
  5
94B
  8
0
 10
112.5625
 20
-82.0650000000000546
 30
0.0
 40
0.5
 50
180.0
 51
270.0
  0
ARC
  5
94C
  8
0
 10
125.5625
 20
-82.0650000000000546
 30
0.0
 40
0.5
 50
270.0
 51
0.0
  0
LINE
  5
94D
  8
0
 10
131.6125000000000114
 20
-68.5650000000000546
 30
0.0
 11
144.6125000000000114
 21
-68.5650000000000546
 31
0.0
  0
LINE
  5
94E
  8
0
 10
131.6125000000000114
 20
-82.5650000000000546
 30
0.0
 11
144.6125000000000114
 21
-82.5650000000000546
 31
0.0
  0
LINE
  5
94F
  8
0
 10
131.1125000000000114
 20
-69.0650000000000546
 30
0.0
 11
131.1125000000000114
 21
-82.0650000000000546
 31
0.0
  0
LINE
  5
950
  8
0
 10
145.1125000000000114
 20
-69.0650000000000546
 30
0.0
 11
145.1125000000000114
 21
-82.0650000000000546
 31
0.0
  0
ARC
  5
951
  8
0
 10
131.6125000000000114
 20
-69.0650000000000546
 30
0.0
 40
0.5
 50
90.0
 51
180.0
  0
ARC
  5
952
  8
0
 10
144.6125000000000114
 20
-69.0650000000000546
 30
0.0
 40
0.5
 50
0.0
 51
90.0
  0
ARC
  5
953
  8
0
 10
131.6125000000000114
 20
-82.0650000000000546
 30
0.0
 40
0.5
 50
180.0
 51
270.0
  0
ARC
  5
954
  8
0
 10
144.6125000000000114
 20
-82.0650000000000546
 30
0.0
 40
0.5
 50
270.0
 51
0.0
  0
LINE
  5
955
  8
0
 10
150.6624999999999943
 20
-68.5650000000000546
 30
0.0
 11
163.6624999999999943
 21
-68.5650000000000546
 31
0.0
  0
LINE
  5
956
  8
0
 10
150.6624999999999943
 20
-82.5650000000000546
 30
0.0
 11
163.6624999999999943
 21
-82.5650000000000546
 31
0.0
  0
LINE
  5
957
  8
0
 10
150.1624999999999943
 20
-69.0650000000000546
 30
0.0
 11
150.1624999999999943
 21
-82.0650000000000546
 31
0.0
  0
LINE
  5
958
  8
0
 10
164.1624999999999943
 20
-69.0650000000000546
 30
0.0
 11
164.1624999999999943
 21
-82.0650000000000546
 31
0.0
  0
ARC
  5
959
  8
0
 10
150.6624999999999943
 20
-69.0650000000000546
 30
0.0
 40
0.5
 50
90.0
 51
180.0
  0
ARC
  5
95A
  8
0
 10
163.6624999999999943
 20
-69.0650000000000546
 30
0.0
 40
0.5
 50
0.0
 51
90.0
  0
ARC
  5
95B
  8
0
 10
150.6624999999999943
 20
-82.0650000000000546
 30
0.0
 40
0.5
 50
180.0
 51
270.0
  0
ARC
  5
95C
  8
0
 10
163.6624999999999943
 20
-82.0650000000000546
 30
0.0
 40
0.5
 50
270.0
 51
0.0
  0
LINE
  5
95D
  8
0
 10
169.7125000000000057
 20
-68.5650000000000546
 30
0.0
 11
182.7125000000000057
 21
-68.5650000000000546
 31
0.0
  0
LINE
  5
95E
  8
0
 10
169.7125000000000057
 20
-82.5650000000000546
 30
0.0
 11
182.7125000000000057
 21
-82.5650000000000546
 31
0.0
  0
LINE
  5
95F
  8
0
 10
169.2125000000000057
 20
-69.0650000000000546
 30
0.0
 11
169.2125000000000057
 21
-82.0650000000000546
 31
0.0
  0
LINE
  5
960
  8
0
 10
183.2125000000000057
 20
-69.0650000000000546
 30
0.0
 11
183.2125000000000057
 21
-82.0650000000000546
 31
0.0
  0
ARC
  5
961
  8
0
 10
169.7125000000000057
 20
-69.0650000000000546
 30
0.0
 40
0.5
 50
90.0
 51
180.0
  0
ARC
  5
962
  8
0
 10
182.7125000000000057
 20
-69.0650000000000546
 30
0.0
 40
0.5
 50
0.0
 51
90.0
  0
ARC
  5
963
  8
0
 10
169.7125000000000057
 20
-82.0650000000000546
 30
0.0
 40
0.5
 50
180.0
 51
270.0
  0
ARC
  5
964
  8
0
 10
182.7125000000000057
 20
-82.0650000000000546
 30
0.0
 40
0.5
 50
270.0
 51
0.0
  0
LINE
  5
965
  8
0
 10
188.7624999999999886
 20
-68.5650000000000546
 30
0.0
 11
201.7624999999999886
 21
-68.5650000000000546
 31
0.0
  0
LINE
  5
966
  8
0
 10
188.7624999999999886
 20
-82.5650000000000546
 30
0.0
 11
201.7624999999999886
 21
-82.5650000000000546
 31
0.0
  0
LINE
  5
967
  8
0
 10
188.2624999999999886
 20
-69.0650000000000546
 30
0.0
 11
188.2624999999999886
 21
-82.0650000000000546
 31
0.0
  0
LINE
  5
968
  8
0
 10
202.2624999999999886
 20
-69.0650000000000546
 30
0.0
 11
202.2624999999999886
 21
-82.0650000000000546
 31
0.0
  0
ARC
  5
969
  8
0
 10
188.7624999999999886
 20
-69.0650000000000546
 30
0.0
 40
0.5
 50
90.0
 51
180.0
  0
ARC
  5
96A
  8
0
 10
201.7624999999999886
 20
-69.0650000000000546
 30
0.0
 40
0.5
 50
0.0
 51
90.0
  0
ARC
  5
96B
  8
0
 10
188.7624999999999886
 20
-82.0650000000000546
 30
0.0
 40
0.5
 50
180.0
 51
270.0
  0
ARC
  5
96C
  8
0
 10
201.7624999999999886
 20
-82.0650000000000546
 30
0.0
 40
0.5
 50
270.0
 51
0.0
  0
LINE
  5
96D
  8
0
 10
207.8125
 20
-68.5650000000000546
 30
0.0
 11
220.8125
 21
-68.5650000000000546
 31
0.0
  0
LINE
  5
96E
  8
0
 10
207.8125
 20
-82.5650000000000546
 30
0.0
 11
220.8125
 21
-82.5650000000000546
 31
0.0
  0
LINE
  5
96F
  8
0
 10
207.3125
 20
-69.0650000000000546
 30
0.0
 11
207.3125
 21
-82.0650000000000546
 31
0.0
  0
LINE
  5
970
  8
0
 10
221.3125
 20
-69.0650000000000546
 30
0.0
 11
221.3125
 21
-82.0650000000000546
 31
0.0
  0
ARC
  5
971
  8
0
 10
207.8125
 20
-69.0650000000000546
 30
0.0
 40
0.5
 50
90.0
 51
180.0
  0
ARC
  5
972
  8
0
 10
220.8125
 20
-69.0650000000000546
 30
0.0
 40
0.5
 50
0.0
 51
90.0
  0
ARC
  5
973
  8
0
 10
207.8125
 20
-82.0650000000000546
 30
0.0
 40
0.5
 50
180.0
 51
270.0
  0
ARC
  5
974
  8
0
 10
220.8125
 20
-82.0650000000000546
 30
0.0
 40
0.5
 50
270.0
 51
0.0
  0
LINE
  5
975
  8
0
 10
226.8625000000000114
 20
-68.5650000000000546
 30
0.0
 11
239.8625000000000114
 21
-68.5650000000000546
 31
0.0
  0
LINE
  5
976
  8
0
 10
226.8625000000000114
 20
-82.5650000000000546
 30
0.0
 11
239.8625000000000114
 21
-82.5650000000000546
 31
0.0
  0
LINE
  5
977
  8
0
 10
226.3625000000000114
 20
-69.0650000000000546
 30
0.0
 11
226.3625000000000114
 21
-82.0650000000000546
 31
0.0
  0
LINE
  5
978
  8
0
 10
240.3625000000000114
 20
-69.0650000000000546
 30
0.0
 11
240.3625000000000114
 21
-82.0650000000000546
 31
0.0
  0
ARC
  5
979
  8
0
 10
226.8625000000000114
 20
-69.0650000000000546
 30
0.0
 40
0.5
 50
90.0
 51
180.0
  0
ARC
  5
97A
  8
0
 10
239.8625000000000114
 20
-69.0650000000000546
 30
0.0
 40
0.5
 50
0.0
 51
90.0
  0
ARC
  5
97B
  8
0
 10
226.8625000000000114
 20
-82.0650000000000546
 30
0.0
 40
0.5
 50
180.0
 51
270.0
  0
ARC
  5
97C
  8
0
 10
239.8625000000000114
 20
-82.0650000000000546
 30
0.0
 40
0.5
 50
270.0
 51
0.0
  0
LINE
  5
97D
  8
0
 10
14.9312500000000004
 20
-87.6150000000000659
 30
0.0
 11
27.9312499999999986
 21
-87.6150000000000659
 31
0.0
  0
LINE
  5
97E
  8
0
 10
14.9312500000000004
 20
-101.6149999999999949
 30
0.0
 11
27.9312499999999986
 21
-101.6149999999999949
 31
0.0
  0
LINE
  5
97F
  8
0
 10
14.4312500000000004
 20
-88.1150000000000659
 30
0.0
 11
14.4312500000000004
 21
-89.738200000000063
 31
0.0
  0
LINE
  5
980
  8
0
 10
28.4312499999999986
 20
-88.1150000000000659
 30
0.0
 11
28.4312499999999986
 21
-89.738200000000063
 31
0.0
  0
ARC
  5
981
  8
0
 10
14.9312500000000004
 20
-88.1150000000000659
 30
0.0
 40
0.5
 50
90.0
 51
180.0
  0
ARC
  5
982
  8
0
 10
27.9312499999999986
 20
-88.1150000000000659
 30
0.0
 40
0.5
 50
0.0
 51
90.0
  0
ARC
  5
983
  8
0
 10
14.9312500000000004
 20
-101.1149999999999949
 30
0.0
 40
0.5
 50
180.0
 51
270.0
  0
ARC
  5
984
  8
0
 10
27.9312499999999986
 20
-101.1149999999999949
 30
0.0
 40
0.5
 50
270.0
 51
0.0
  0
LINE
  5
985
  8
0
 10
6.4158499999999981
 20
-88.9254000000000531
 30
0.0
 11
12.5706500000000005
 21
-88.9254000000000531
 31
0.0
  0
LINE
  5
986
  8
0
 10
12.8206500000000005
 20
-89.1754000000000531
 30
0.0
 11
12.8206500000000005
 21
-89.738200000000063
 31
0.0
  0
LINE
  5
987
  8
0
 10
12.8206500000000005
 20
-89.738200000000063
 30
0.0
 11
14.4312500000000004
 21
-89.738200000000063
 31
0.0
  0
LINE
  5
988
  8
0
 10
14.4312500000000004
 20
-100.4316000000000031
 30
0.0
 11
12.8206500000000005
 21
-100.4316000000000031
 31
0.0
  0
LINE
  5
989
  8
0
 10
12.8206500000000005
 20
-100.4316000000000031
 30
0.0
 11
12.8206500000000005
 21
-100.9689999999999941
 31
0.0
  0
LINE
  5
98A
  8
0
 10
12.5706500000000005
 20
-101.2189999999999941
 30
0.0
 11
11.0172500000000007
 21
-101.2189999999999941
 31
0.0
  0
LINE
  5
98B
  8
0
 10
11.0172500000000007
 20
-101.2189999999999941
 30
0.0
 11
11.0172500000000007
 21
-102.1373999999999995
 31
0.0
  0
LINE
  5
98C
  8
0
 10
10.7672500000000007
 20
-102.3873999999999995
 30
0.0
 11
8.2192500000000024
 21
-102.3873999999999995
 31
0.0
  0
LINE
  5
98D
  8
0
 10
7.9692499999999988
 20
-102.1373999999999995
 30
0.0
 11
7.9692499999999988
 21
-101.2189999999999941
 31
0.0
  0
LINE
  5
98E
  8
0
 10
7.9692499999999988
 20
-101.2189999999999941
 30
0.0
 11
6.4158499999999981
 21
-101.2189999999999941
 31
0.0
  0
LINE
  5
98F
  8
0
 10
6.1658499999999981
 20
-100.9689999999999941
 30
0.0
 11
6.1658499999999981
 21
-95.1230000000000047
 31
0.0
  0
LINE
  5
990
  8
0
 10
6.1658499999999981
 20
-95.1230000000000047
 30
0.0
 11
5.552249999999999
 21
-95.1230000000000047
 31
0.0
  0
LINE
  5
991
  8
0
 10
5.302249999999999
 20
-94.8730000000000047
 30
0.0
 11
5.302249999999999
 21
-92.5790000000000646
 31
0.0
  0
LINE
  5
992
  8
0
 10
5.552249999999999
 20
-92.3290000000000646
 30
0.0
 11
6.1658499999999981
 21
-92.3290000000000646
 31
0.0
  0
LINE
  5
993
  8
0
 10
6.1658499999999981
 20
-92.3290000000000646
 30
0.0
 11
6.1658499999999981
 21
-89.1754000000000531
 31
0.0
  0
LINE
  5
994
  8
0
 10
36.4466499999999982
 20
-88.9254000000000531
 30
0.0
 11
30.2918500000000002
 21
-88.9254000000000531
 31
0.0
  0
LINE
  5
995
  8
0
 10
30.0418500000000002
 20
-89.1754000000000531
 30
0.0
 11
30.0418500000000002
 21
-89.738200000000063
 31
0.0
  0
LINE
  5
996
  8
0
 10
30.0418500000000002
 20
-89.738200000000063
 30
0.0
 11
28.4312499999999986
 21
-89.738200000000063
 31
0.0
  0
LINE
  5
997
  8
0
 10
28.4312499999999986
 20
-100.4316000000000031
 30
0.0
 11
30.0418500000000002
 21
-100.4316000000000031
 31
0.0
  0
LINE
  5
998
  8
0
 10
30.0418500000000002
 20
-100.4316000000000031
 30
0.0
 11
30.0418500000000002
 21
-100.9689999999999941
 31
0.0
  0
LINE
  5
999
  8
0
 10
30.2918500000000002
 20
-101.2189999999999941
 30
0.0
 11
31.8452500000000001
 21
-101.2189999999999941
 31
0.0
  0
LINE
  5
99A
  8
0
 10
31.8452500000000001
 20
-101.2189999999999941
 30
0.0
 11
31.8452500000000001
 21
-102.1373999999999995
 31
0.0
  0
LINE
  5
99B
  8
0
 10
32.0952500000000001
 20
-102.3873999999999995
 30
0.0
 11
34.6432500000000019
 21
-102.3873999999999995
 31
0.0
  0
LINE
  5
99C
  8
0
 10
34.8932500000000019
 20
-102.1373999999999995
 30
0.0
 11
34.8932500000000019
 21
-101.2189999999999941
 31
0.0
  0
LINE
  5
99D
  8
0
 10
34.8932500000000019
 20
-101.2189999999999941
 30
0.0
 11
36.4466499999999982
 21
-101.2189999999999941
 31
0.0
  0
LINE
  5
99E
  8
0
 10
36.6966499999999982
 20
-100.9689999999999941
 30
0.0
 11
36.6966499999999982
 21
-95.1230000000000047
 31
0.0
  0
LINE
  5
99F
  8
0
 10
36.6966499999999982
 20
-95.1230000000000047
 30
0.0
 11
37.3102500000000106
 21
-95.1230000000000047
 31
0.0
  0
LINE
  5
9A0
  8
0
 10
37.5602500000000106
 20
-94.8730000000000047
 30
0.0
 11
37.5602500000000106
 21
-92.5790000000000646
 31
0.0
  0
LINE
  5
9A1
  8
0
 10
37.3102500000000106
 20
-92.3290000000000646
 30
0.0
 11
36.6966499999999982
 21
-92.3290000000000646
 31
0.0
  0
LINE
  5
9A2
  8
0
 10
36.6966499999999982
 20
-92.3290000000000646
 30
0.0
 11
36.6966499999999982
 21
-89.1754000000000531
 31
0.0
  0
LINE
  5
9A3
  8
0
 10
45.8875000000000028
 20
-87.6150000000000659
 30
0.0
 11
58.8875000000000028
 21
-87.6150000000000659
 31
0.0
  0
LINE
  5
9A4
  8
0
 10
45.8875000000000028
 20
-101.6149999999999949
 30
0.0
 11
58.8875000000000028
 21
-101.6149999999999949
 31
0.0
  0
LINE
  5
9A5
  8
0
 10
45.3875000000000028
 20
-88.1150000000000659
 30
0.0
 11
45.3875000000000028
 21
-101.1149999999999949
 31
0.0
  0
LINE
  5
9A6
  8
0
 10
59.3875000000000028
 20
-88.1150000000000659
 30
0.0
 11
59.3875000000000028
 21
-101.1149999999999949
 31
0.0
  0
ARC
  5
9A7
  8
0
 10
45.8875000000000028
 20
-88.1150000000000659
 30
0.0
 40
0.5
 50
90.0
 51
180.0
  0
ARC
  5
9A8
  8
0
 10
58.8875000000000028
 20
-88.1150000000000659
 30
0.0
 40
0.5
 50
0.0
 51
90.0
  0
ARC
  5
9A9
  8
0
 10
45.8875000000000028
 20
-101.1149999999999949
 30
0.0
 40
0.5
 50
180.0
 51
270.0
  0
ARC
  5
9AA
  8
0
 10
58.8875000000000028
 20
-101.1149999999999949
 30
0.0
 40
0.5
 50
270.0
 51
0.0
  0
LINE
  5
9AB
  8
0
 10
64.9375
 20
-87.6150000000000659
 30
0.0
 11
77.9375
 21
-87.6150000000000659
 31
0.0
  0
LINE
  5
9AC
  8
0
 10
64.9375
 20
-101.6149999999999949
 30
0.0
 11
77.9375
 21
-101.6149999999999949
 31
0.0
  0
LINE
  5
9AD
  8
0
 10
64.4375
 20
-88.1150000000000659
 30
0.0
 11
64.4375
 21
-101.1149999999999949
 31
0.0
  0
LINE
  5
9AE
  8
0
 10
78.4375
 20
-88.1150000000000659
 30
0.0
 11
78.4375
 21
-101.1149999999999949
 31
0.0
  0
ARC
  5
9AF
  8
0
 10
64.9375
 20
-88.1150000000000659
 30
0.0
 40
0.5
 50
90.0
 51
180.0
  0
ARC
  5
9B0
  8
0
 10
77.9375
 20
-88.1150000000000659
 30
0.0
 40
0.5
 50
0.0
 51
90.0
  0
ARC
  5
9B1
  8
0
 10
64.9375
 20
-101.1149999999999949
 30
0.0
 40
0.5
 50
180.0
 51
270.0
  0
ARC
  5
9B2
  8
0
 10
77.9375
 20
-101.1149999999999949
 30
0.0
 40
0.5
 50
270.0
 51
0.0
  0
LINE
  5
9B3
  8
0
 10
83.9874999999999687
 20
-87.6150000000000659
 30
0.0
 11
96.9874999999999972
 21
-87.6150000000000659
 31
0.0
  0
LINE
  5
9B4
  8
0
 10
83.9874999999999687
 20
-101.6149999999999949
 30
0.0
 11
96.9874999999999972
 21
-101.6149999999999949
 31
0.0
  0
LINE
  5
9B5
  8
0
 10
83.4874999999999829
 20
-88.1150000000000659
 30
0.0
 11
83.4874999999999829
 21
-101.1149999999999949
 31
0.0
  0
LINE
  5
9B6
  8
0
 10
97.4875000000000114
 20
-88.1150000000000659
 30
0.0
 11
97.4875000000000114
 21
-101.1149999999999949
 31
0.0
  0
ARC
  5
9B7
  8
0
 10
83.9874999999999687
 20
-88.1150000000000659
 30
0.0
 40
0.5
 50
90.0
 51
180.0
  0
ARC
  5
9B8
  8
0
 10
96.9874999999999972
 20
-88.1150000000000659
 30
0.0
 40
0.5
 50
0.0
 51
90.0
  0
ARC
  5
9B9
  8
0
 10
83.9874999999999687
 20
-101.1149999999999949
 30
0.0
 40
0.5
 50
180.0
 51
270.0
  0
ARC
  5
9BA
  8
0
 10
96.9874999999999972
 20
-101.1149999999999949
 30
0.0
 40
0.5
 50
270.0
 51
0.0
  0
LINE
  5
9BB
  8
0
 10
103.0374999999999943
 20
-87.6150000000000659
 30
0.0
 11
116.0374999999999943
 21
-87.6150000000000659
 31
0.0
  0
LINE
  5
9BC
  8
0
 10
103.0374999999999943
 20
-101.6149999999999949
 30
0.0
 11
116.0374999999999943
 21
-101.6149999999999949
 31
0.0
  0
LINE
  5
9BD
  8
0
 10
102.5374999999999943
 20
-88.1150000000000659
 30
0.0
 11
102.5374999999999943
 21
-101.1149999999999949
 31
0.0
  0
LINE
  5
9BE
  8
0
 10
116.5374999999999943
 20
-88.1150000000000659
 30
0.0
 11
116.5374999999999943
 21
-101.1149999999999949
 31
0.0
  0
ARC
  5
9BF
  8
0
 10
103.0374999999999943
 20
-88.1150000000000659
 30
0.0
 40
0.5
 50
90.0
 51
180.0
  0
ARC
  5
9C0
  8
0
 10
116.0374999999999943
 20
-88.1150000000000659
 30
0.0
 40
0.5
 50
0.0
 51
90.0
  0
ARC
  5
9C1
  8
0
 10
103.0374999999999943
 20
-101.1149999999999949
 30
0.0
 40
0.5
 50
180.0
 51
270.0
  0
ARC
  5
9C2
  8
0
 10
116.0374999999999943
 20
-101.1149999999999949
 30
0.0
 40
0.5
 50
270.0
 51
0.0
  0
LINE
  5
9C3
  8
0
 10
122.0875000000000057
 20
-87.6150000000000659
 30
0.0
 11
135.0875000000000057
 21
-87.6150000000000659
 31
0.0
  0
LINE
  5
9C4
  8
0
 10
122.0875000000000057
 20
-101.6149999999999949
 30
0.0
 11
135.0875000000000057
 21
-101.6149999999999949
 31
0.0
  0
LINE
  5
9C5
  8
0
 10
121.5875000000000057
 20
-88.1150000000000659
 30
0.0
 11
121.5875000000000057
 21
-101.1149999999999949
 31
0.0
  0
LINE
  5
9C6
  8
0
 10
135.5875000000000057
 20
-88.1150000000000659
 30
0.0
 11
135.5875000000000057
 21
-101.1149999999999949
 31
0.0
  0
ARC
  5
9C7
  8
0
 10
122.0875000000000057
 20
-88.1150000000000659
 30
0.0
 40
0.5
 50
90.0
 51
180.0
  0
ARC
  5
9C8
  8
0
 10
135.0875000000000057
 20
-88.1150000000000659
 30
0.0
 40
0.5
 50
0.0
 51
90.0
  0
ARC
  5
9C9
  8
0
 10
122.0875000000000057
 20
-101.1149999999999949
 30
0.0
 40
0.5
 50
180.0
 51
270.0
  0
ARC
  5
9CA
  8
0
 10
135.0875000000000057
 20
-101.1149999999999949
 30
0.0
 40
0.5
 50
270.0
 51
0.0
  0
LINE
  5
9CB
  8
0
 10
141.1374999999999886
 20
-87.6150000000000659
 30
0.0
 11
154.1374999999999034
 21
-87.6150000000000659
 31
0.0
  0
LINE
  5
9CC
  8
0
 10
141.1374999999999886
 20
-101.6149999999999949
 30
0.0
 11
154.1374999999999034
 21
-101.6149999999999949
 31
0.0
  0
LINE
  5
9CD
  8
0
 10
140.6374999999999886
 20
-88.1150000000000659
 30
0.0
 11
140.6374999999999886
 21
-101.1149999999999949
 31
0.0
  0
LINE
  5
9CE
  8
0
 10
154.6374999999999034
 20
-88.1150000000000659
 30
0.0
 11
154.6374999999999034
 21
-101.1149999999999949
 31
0.0
  0
ARC
  5
9CF
  8
0
 10
141.1374999999999886
 20
-88.1150000000000659
 30
0.0
 40
0.5
 50
90.0
 51
180.0
  0
ARC
  5
9D0
  8
0
 10
154.1374999999999034
 20
-88.1150000000000659
 30
0.0
 40
0.5
 50
0.0
 51
90.0
  0
ARC
  5
9D1
  8
0
 10
141.1374999999999886
 20
-101.1149999999999949
 30
0.0
 40
0.5
 50
180.0
 51
270.0
  0
ARC
  5
9D2
  8
0
 10
154.1374999999999034
 20
-101.1149999999999949
 30
0.0
 40
0.5
 50
270.0
 51
0.0
  0
LINE
  5
9D3
  8
0
 10
160.1875
 20
-87.6150000000000659
 30
0.0
 11
173.1875
 21
-87.6150000000000659
 31
0.0
  0
LINE
  5
9D4
  8
0
 10
160.1875
 20
-101.6149999999999949
 30
0.0
 11
173.1875
 21
-101.6149999999999949
 31
0.0
  0
LINE
  5
9D5
  8
0
 10
159.6875
 20
-88.1150000000000659
 30
0.0
 11
159.6875
 21
-101.1149999999999949
 31
0.0
  0
LINE
  5
9D6
  8
0
 10
173.6875
 20
-88.1150000000000659
 30
0.0
 11
173.6875
 21
-101.1149999999999949
 31
0.0
  0
ARC
  5
9D7
  8
0
 10
160.1875
 20
-88.1150000000000659
 30
0.0
 40
0.5
 50
90.0
 51
180.0
  0
ARC
  5
9D8
  8
0
 10
173.1875
 20
-88.1150000000000659
 30
0.0
 40
0.5
 50
0.0
 51
90.0
  0
ARC
  5
9D9
  8
0
 10
160.1875
 20
-101.1149999999999949
 30
0.0
 40
0.5
 50
180.0
 51
270.0
  0
ARC
  5
9DA
  8
0
 10
173.1875
 20
-101.1149999999999949
 30
0.0
 40
0.5
 50
270.0
 51
0.0
  0
LINE
  5
9DB
  8
0
 10
179.2375000000000114
 20
-87.6150000000000659
 30
0.0
 11
192.2375000000000114
 21
-87.6150000000000659
 31
0.0
  0
LINE
  5
9DC
  8
0
 10
179.2375000000000114
 20
-101.6149999999999949
 30
0.0
 11
192.2375000000000114
 21
-101.6149999999999949
 31
0.0
  0
LINE
  5
9DD
  8
0
 10
178.7375000000000114
 20
-88.1150000000000659
 30
0.0
 11
178.7375000000000114
 21
-101.1149999999999949
 31
0.0
  0
LINE
  5
9DE
  8
0
 10
192.7375000000000114
 20
-88.1150000000000659
 30
0.0
 11
192.7375000000000114
 21
-101.1149999999999949
 31
0.0
  0
ARC
  5
9DF
  8
0
 10
179.2375000000000114
 20
-88.1150000000000659
 30
0.0
 40
0.5
 50
90.0
 51
180.0
  0
ARC
  5
9E0
  8
0
 10
192.2375000000000114
 20
-88.1150000000000659
 30
0.0
 40
0.5
 50
0.0
 51
90.0
  0
ARC
  5
9E1
  8
0
 10
179.2375000000000114
 20
-101.1149999999999949
 30
0.0
 40
0.5
 50
180.0
 51
270.0
  0
ARC
  5
9E2
  8
0
 10
192.2375000000000114
 20
-101.1149999999999949
 30
0.0
 40
0.5
 50
270.0
 51
0.0
  0
LINE
  5
9E3
  8
0
 10
198.2874999999999943
 20
-87.6150000000000659
 30
0.0
 11
211.2874999999999943
 21
-87.6150000000000659
 31
0.0
  0
LINE
  5
9E4
  8
0
 10
198.2874999999999943
 20
-101.6149999999999949
 30
0.0
 11
211.2874999999999943
 21
-101.6149999999999949
 31
0.0
  0
LINE
  5
9E5
  8
0
 10
197.7874999999999943
 20
-88.1150000000000659
 30
0.0
 11
197.7874999999999943
 21
-101.1149999999999949
 31
0.0
  0
LINE
  5
9E6
  8
0
 10
211.7874999999999943
 20
-88.1150000000000659
 30
0.0
 11
211.7874999999999943
 21
-101.1149999999999949
 31
0.0
  0
ARC
  5
9E7
  8
0
 10
198.2874999999999943
 20
-88.1150000000000659
 30
0.0
 40
0.5
 50
90.0
 51
180.0
  0
ARC
  5
9E8
  8
0
 10
211.2874999999999943
 20
-88.1150000000000659
 30
0.0
 40
0.5
 50
0.0
 51
90.0
  0
ARC
  5
9E9
  8
0
 10
198.2874999999999943
 20
-101.1149999999999949
 30
0.0
 40
0.5
 50
180.0
 51
270.0
  0
ARC
  5
9EA
  8
0
 10
211.2874999999999943
 20
-101.1149999999999949
 30
0.0
 40
0.5
 50
270.0
 51
0.0
  0
LINE
  5
9EB
  8
0
 10
217.3375000000000057
 20
-87.6150000000000659
 30
0.0
 11
230.3375000000000057
 21
-87.6150000000000659
 31
0.0
  0
LINE
  5
9EC
  8
0
 10
217.3375000000000057
 20
-101.6149999999999949
 30
0.0
 11
230.3375000000000057
 21
-101.6149999999999949
 31
0.0
  0
LINE
  5
9ED
  8
0
 10
216.8375000000000057
 20
-88.1150000000000659
 30
0.0
 11
216.8375000000000057
 21
-101.1149999999999949
 31
0.0
  0
LINE
  5
9EE
  8
0
 10
230.8375000000000057
 20
-88.1150000000000659
 30
0.0
 11
230.8375000000000057
 21
-101.1149999999999949
 31
0.0
  0
ARC
  5
9EF
  8
0
 10
217.3375000000000057
 20
-88.1150000000000659
 30
0.0
 40
0.5
 50
90.0
 51
180.0
  0
ARC
  5
9F0
  8
0
 10
230.3375000000000057
 20
-88.1150000000000659
 30
0.0
 40
0.5
 50
0.0
 51
90.0
  0
ARC
  5
9F1
  8
0
 10
217.3375000000000057
 20
-101.1149999999999949
 30
0.0
 40
0.5
 50
180.0
 51
270.0
  0
ARC
  5
9F2
  8
0
 10
230.3375000000000057
 20
-101.1149999999999949
 30
0.0
 40
0.5
 50
270.0
 51
0.0
  0
LINE
  5
9F3
  8
0
 10
312.9049999999999727
 20
-87.6150000000000517
 30
0.0
 11
325.9049999999999727
 21
-87.6150000000000517
 31
0.0
  0
LINE
  5
9F4
  8
0
 10
312.9049999999999727
 20
-101.6149999999999949
 30
0.0
 11
325.9049999999999727
 21
-101.6149999999999949
 31
0.0
  0
LINE
  5
9F5
  8
0
 10
312.4049999999999727
 20
-88.1150000000000517
 30
0.0
 11
312.4049999999999727
 21
-101.1149999999999949
 31
0.0
  0
LINE
  5
9F6
  8
0
 10
326.4049999999999727
 20
-88.1150000000000517
 30
0.0
 11
326.4049999999999727
 21
-101.1149999999999949
 31
0.0
  0
ARC
  5
9F7
  8
0
 10
312.9049999999999727
 20
-88.1150000000000517
 30
0.0
 40
0.5
 50
90.0
 51
180.0
  0
ARC
  5
9F8
  8
0
 10
325.9049999999999727
 20
-88.1150000000000517
 30
0.0
 40
0.5
 50
0.0
 51
90.0
  0
ARC
  5
9F9
  8
0
 10
312.9049999999999727
 20
-101.1149999999999949
 30
0.0
 40
0.5
 50
180.0
 51
270.0
  0
ARC
  5
9FA
  8
0
 10
325.9049999999999727
 20
-101.1149999999999949
 30
0.0
 40
0.5
 50
270.0
 51
0.0
  0
LINE
  5
9FB
  8
0
 10
5.40625
 20
-106.6650000000000063
 30
0.0
 11
18.40625
 21
-106.6650000000000063
 31
0.0
  0
LINE
  5
9FC
  8
0
 10
5.40625
 20
-120.6650000000000063
 30
0.0
 11
18.40625
 21
-120.6650000000000063
 31
0.0
  0
LINE
  5
9FD
  8
0
 10
4.90625
 20
-107.1650000000000063
 30
0.0
 11
4.90625
 21
-120.1650000000000063
 31
0.0
  0
LINE
  5
9FE
  8
0
 10
18.90625
 20
-107.1650000000000063
 30
0.0
 11
18.90625
 21
-120.1650000000000063
 31
0.0
  0
ARC
  5
9FF
  8
0
 10
5.40625
 20
-107.1650000000000063
 30
0.0
 40
0.5
 50
90.0
 51
180.0
  0
ARC
  5
A00
  8
0
 10
18.40625
 20
-107.1650000000000063
 30
0.0
 40
0.5
 50
0.0
 51
90.0
  0
ARC
  5
A01
  8
0
 10
5.40625
 20
-120.1650000000000063
 30
0.0
 40
0.5
 50
180.0
 51
270.0
  0
ARC
  5
A02
  8
0
 10
18.40625
 20
-120.1650000000000063
 30
0.0
 40
0.5
 50
270.0
 51
0.0
  0
LINE
  5
A03
  8
0
 10
29.21875
 20
-106.6650000000000063
 30
0.0
 11
42.2187499999999929
 21
-106.6650000000000063
 31
0.0
  0
LINE
  5
A04
  8
0
 10
29.21875
 20
-120.6650000000000063
 30
0.0
 11
42.2187499999999929
 21
-120.6650000000000063
 31
0.0
  0
LINE
  5
A05
  8
0
 10
28.71875
 20
-107.1650000000000063
 30
0.0
 11
28.71875
 21
-120.1650000000000063
 31
0.0
  0
LINE
  5
A06
  8
0
 10
42.71875
 20
-107.1650000000000063
 30
0.0
 11
42.71875
 21
-120.1650000000000063
 31
0.0
  0
ARC
  5
A07
  8
0
 10
29.21875
 20
-107.1650000000000063
 30
0.0
 40
0.5
 50
90.0
 51
180.0
  0
ARC
  5
A08
  8
0
 10
42.2187499999999929
 20
-107.1650000000000063
 30
0.0
 40
0.5
 50
0.0
 51
90.0
  0
ARC
  5
A09
  8
0
 10
29.21875
 20
-120.1650000000000063
 30
0.0
 40
0.5
 50
180.0
 51
270.0
  0
ARC
  5
A0A
  8
0
 10
42.2187499999999929
 20
-120.1650000000000063
 30
0.0
 40
0.5
 50
270.0
 51
0.0
  0
LINE
  5
A0B
  8
0
 10
53.03125
 20
-106.6650000000000063
 30
0.0
 11
66.03125
 21
-106.6650000000000063
 31
0.0
  0
LINE
  5
A0C
  8
0
 10
53.03125
 20
-120.6650000000000063
 30
0.0
 11
66.03125
 21
-120.6650000000000063
 31
0.0
  0
LINE
  5
A0D
  8
0
 10
52.53125
 20
-107.1650000000000063
 30
0.0
 11
52.53125
 21
-120.1650000000000063
 31
0.0
  0
LINE
  5
A0E
  8
0
 10
66.53125
 20
-107.1650000000000063
 30
0.0
 11
66.53125
 21
-120.1650000000000063
 31
0.0
  0
ARC
  5
A0F
  8
0
 10
53.03125
 20
-107.1650000000000063
 30
0.0
 40
0.5
 50
90.0
 51
180.0
  0
ARC
  5
A10
  8
0
 10
66.03125
 20
-107.1650000000000063
 30
0.0
 40
0.5
 50
0.0
 51
90.0
  0
ARC
  5
A11
  8
0
 10
53.03125
 20
-120.1650000000000063
 30
0.0
 40
0.5
 50
180.0
 51
270.0
  0
ARC
  5
A12
  8
0
 10
66.03125
 20
-120.1650000000000063
 30
0.0
 40
0.5
 50
270.0
 51
0.0
  0
LINE
  5
A13
  8
0
 10
124.46875
 20
-106.6650000000000063
 30
0.0
 11
137.46875
 21
-106.6650000000000063
 31
0.0
  0
LINE
  5
A14
  8
0
 10
124.46875
 20
-120.6650000000000063
 30
0.0
 11
137.46875
 21
-120.6650000000000063
 31
0.0
  0
LINE
  5
A15
  8
0
 10
123.96875
 20
-107.1650000000000063
 30
0.0
 11
123.96875
 21
-111.3649999999999949
 31
0.0
  0
LINE
  5
A16
  8
0
 10
137.96875
 20
-107.1650000000000063
 30
0.0
 11
137.96875
 21
-111.3649999999999949
 31
0.0
  0
ARC
  5
A17
  8
0
 10
124.46875
 20
-107.1650000000000063
 30
0.0
 40
0.5
 50
90.0
 51
180.0
  0
ARC
  5
A18
  8
0
 10
137.46875
 20
-107.1650000000000063
 30
0.0
 40
0.5
 50
0.0
 51
90.0
  0
ARC
  5
A19
  8
0
 10
124.46875
 20
-120.1650000000000063
 30
0.0
 40
0.5
 50
180.0
 51
270.0
  0
ARC
  5
A1A
  8
0
 10
137.46875
 20
-120.1650000000000063
 30
0.0
 40
0.5
 50
270.0
 51
0.0
  0
LINE
  5
A1B
  8
0
 10
77.8913500000000028
 20
-107.9753999999999934
 30
0.0
 11
84.0461499999999688
 21
-107.9753999999999934
 31
0.0
  0
LINE
  5
A1C
  8
0
 10
84.296149999999983
 20
-108.2253999999999934
 30
0.0
 11
84.296149999999983
 21
-111.3649999999999949
 31
0.0
  0
LINE
  5
A1D
  8
0
 10
84.296149999999983
 20
-111.3649999999999949
 30
0.0
 11
123.96875
 21
-111.3649999999999949
 31
0.0
  0
LINE
  5
A1E
  8
0
 10
123.96875
 20
-115.9650000000000034
 30
0.0
 11
84.296149999999983
 21
-115.9650000000000034
 31
0.0
  0
LINE
  5
A1F
  8
0
 10
84.296149999999983
 20
-115.9650000000000034
 30
0.0
 11
84.296149999999983
 21
-120.0190000000000055
 31
0.0
  0
LINE
  5
A20
  8
0
 10
84.0461499999999688
 20
-120.2690000000000055
 30
0.0
 11
82.4927500000000009
 21
-120.2690000000000055
 31
0.0
  0
LINE
  5
A21
  8
0
 10
82.4927500000000009
 20
-120.2690000000000055
 30
0.0
 11
82.4927500000000009
 21
-121.1873999999999967
 31
0.0
  0
LINE
  5
A22
  8
0
 10
82.2427500000000009
 20
-121.4373999999999967
 30
0.0
 11
79.6947499999999991
 21
-121.4373999999999967
 31
0.0
  0
LINE
  5
A23
  8
0
 10
79.4447499999999991
 20
-121.1873999999999967
 30
0.0
 11
79.4447499999999991
 21
-120.2690000000000055
 31
0.0
  0
LINE
  5
A24
  8
0
 10
79.4447499999999991
 20
-120.2690000000000055
 30
0.0
 11
77.8913500000000028
 21
-120.2690000000000055
 31
0.0
  0
LINE
  5
A25
  8
0
 10
77.6413500000000028
 20
-120.0190000000000055
 30
0.0
 11
77.6413500000000028
 21
-114.1730000000000018
 31
0.0
  0
LINE
  5
A26
  8
0
 10
77.6413500000000028
 20
-114.1730000000000018
 30
0.0
 11
77.0277499999999833
 21
-114.1730000000000018
 31
0.0
  0
LINE
  5
A27
  8
0
 10
76.7777499999999833
 20
-113.9230000000000018
 30
0.0
 11
76.7777499999999833
 21
-111.6290000000000049
 31
0.0
  0
LINE
  5
A28
  8
0
 10
77.0277499999999833
 20
-111.3790000000000049
 30
0.0
 11
77.6413500000000028
 21
-111.3790000000000049
 31
0.0
  0
LINE
  5
A29
  8
0
 10
77.6413500000000028
 20
-111.3790000000000049
 30
0.0
 11
77.6413500000000028
 21
-108.2253999999999934
 31
0.0
  0
LINE
  5
A2A
  8
0
 10
184.0461500000000115
 20
-107.9753999999999934
 30
0.0
 11
177.8913499999999033
 21
-107.9753999999999934
 31
0.0
  0
LINE
  5
A2B
  8
0
 10
177.6413499999999885
 20
-108.2253999999999934
 30
0.0
 11
177.6413499999999885
 21
-111.3649999999999949
 31
0.0
  0
LINE
  5
A2C
  8
0
 10
177.6413499999999885
 20
-111.3649999999999949
 30
0.0
 11
137.96875
 21
-111.3649999999999949
 31
0.0
  0
LINE
  5
A2D
  8
0
 10
137.96875
 20
-115.9650000000000034
 30
0.0
 11
177.6413499999999885
 21
-115.9650000000000034
 31
0.0
  0
LINE
  5
A2E
  8
0
 10
177.6413499999999885
 20
-115.9650000000000034
 30
0.0
 11
177.6413499999999885
 21
-120.0190000000000055
 31
0.0
  0
LINE
  5
A2F
  8
0
 10
177.8913499999999033
 20
-120.2690000000000055
 30
0.0
 11
179.4447499999999991
 21
-120.2690000000000055
 31
0.0
  0
LINE
  5
A30
  8
0
 10
179.4447499999999991
 20
-120.2690000000000055
 30
0.0
 11
179.4447499999999991
 21
-121.1873999999999967
 31
0.0
  0
LINE
  5
A31
  8
0
 10
179.6947499999999991
 20
-121.4373999999999967
 30
0.0
 11
182.2427500000000009
 21
-121.4373999999999967
 31
0.0
  0
LINE
  5
A32
  8
0
 10
182.4927500000000009
 20
-121.1873999999999967
 30
0.0
 11
182.4927500000000009
 21
-120.2690000000000055
 31
0.0
  0
LINE
  5
A33
  8
0
 10
182.4927500000000009
 20
-120.2690000000000055
 30
0.0
 11
184.0461500000000115
 21
-120.2690000000000055
 31
0.0
  0
LINE
  5
A34
  8
0
 10
184.2961500000000115
 20
-120.0190000000000055
 30
0.0
 11
184.2961500000000115
 21
-114.1730000000000018
 31
0.0
  0
LINE
  5
A35
  8
0
 10
184.2961500000000115
 20
-114.1730000000000018
 30
0.0
 11
184.9097500000000025
 21
-114.1730000000000018
 31
0.0
  0
LINE
  5
A36
  8
0
 10
185.1597500000000025
 20
-113.9230000000000018
 30
0.0
 11
185.1597500000000025
 21
-111.6290000000000049
 31
0.0
  0
LINE
  5
A37
  8
0
 10
184.9097500000000025
 20
-111.3790000000000049
 30
0.0
 11
184.2961500000000115
 21
-111.3790000000000049
 31
0.0
  0
LINE
  5
A38
  8
0
 10
184.2961500000000115
 20
-111.3790000000000049
 30
0.0
 11
184.2961500000000115
 21
-108.2253999999999934
 31
0.0
  0
LINE
  5
A39
  8
0
 10
195.90625
 20
-106.6650000000000063
 30
0.0
 11
208.90625
 21
-106.6650000000000063
 31
0.0
  0
LINE
  5
A3A
  8
0
 10
195.90625
 20
-120.6650000000000063
 30
0.0
 11
208.90625
 21
-120.6650000000000063
 31
0.0
  0
LINE
  5
A3B
  8
0
 10
195.40625
 20
-107.1650000000000063
 30
0.0
 11
195.40625
 21
-120.1650000000000063
 31
0.0
  0
LINE
  5
A3C
  8
0
 10
209.40625
 20
-107.1650000000000063
 30
0.0
 11
209.40625
 21
-120.1650000000000063
 31
0.0
  0
ARC
  5
A3D
  8
0
 10
195.90625
 20
-107.1650000000000063
 30
0.0
 40
0.5
 50
90.0
 51
180.0
  0
ARC
  5
A3E
  8
0
 10
208.90625
 20
-107.1650000000000063
 30
0.0
 40
0.5
 50
0.0
 51
90.0
  0
ARC
  5
A3F
  8
0
 10
195.90625
 20
-120.1650000000000063
 30
0.0
 40
0.5
 50
180.0
 51
270.0
  0
ARC
  5
A40
  8
0
 10
208.90625
 20
-120.1650000000000063
 30
0.0
 40
0.5
 50
270.0
 51
0.0
  0
LINE
  5
A41
  8
0
 10
219.71875
 20
-106.6650000000000063
 30
0.0
 11
232.71875
 21
-106.6650000000000063
 31
0.0
  0
LINE
  5
A42
  8
0
 10
219.71875
 20
-120.6650000000000063
 30
0.0
 11
232.71875
 21
-120.6650000000000063
 31
0.0
  0
LINE
  5
A43
  8
0
 10
219.21875
 20
-107.1650000000000063
 30
0.0
 11
219.21875
 21
-120.1650000000000063
 31
0.0
  0
LINE
  5
A44
  8
0
 10
233.21875
 20
-107.1650000000000063
 30
0.0
 11
233.21875
 21
-120.1650000000000063
 31
0.0
  0
ARC
  5
A45
  8
0
 10
219.71875
 20
-107.1650000000000063
 30
0.0
 40
0.5
 50
90.0
 51
180.0
  0
ARC
  5
A46
  8
0
 10
232.71875
 20
-107.1650000000000063
 30
0.0
 40
0.5
 50
0.0
 51
90.0
  0
ARC
  5
A47
  8
0
 10
219.71875
 20
-120.1650000000000063
 30
0.0
 40
0.5
 50
180.0
 51
270.0
  0
ARC
  5
A48
  8
0
 10
232.71875
 20
-120.1650000000000063
 30
0.0
 40
0.5
 50
270.0
 51
0.0
  0
LINE
  5
A49
  8
0
 10
243.53125
 20
-106.6650000000000063
 30
0.0
 11
256.53125
 21
-106.6650000000000063
 31
0.0
  0
LINE
  5
A4A
  8
0
 10
243.53125
 20
-120.6650000000000063
 30
0.0
 11
256.53125
 21
-120.6650000000000063
 31
0.0
  0
LINE
  5
A4B
  8
0
 10
243.03125
 20
-107.1650000000000063
 30
0.0
 11
243.03125
 21
-120.1650000000000063
 31
0.0
  0
LINE
  5
A4C
  8
0
 10
257.03125
 20
-107.1650000000000063
 30
0.0
 11
257.03125
 21
-120.1650000000000063
 31
0.0
  0
ARC
  5
A4D
  8
0
 10
243.53125
 20
-107.1650000000000063
 30
0.0
 40
0.5
 50
90.0
 51
180.0
  0
ARC
  5
A4E
  8
0
 10
256.53125
 20
-107.1650000000000063
 30
0.0
 40
0.5
 50
0.0
 51
90.0
  0
ARC
  5
A4F
  8
0
 10
243.53125
 20
-120.1650000000000063
 30
0.0
 40
0.5
 50
180.0
 51
270.0
  0
ARC
  5
A50
  8
0
 10
256.53125
 20
-120.1650000000000063
 30
0.0
 40
0.5
 50
270.0
 51
0.0
  0
LINE
  5
A51
  8
0
 10
267.34375
 20
-106.6650000000000063
 30
0.0
 11
280.34375
 21
-106.6650000000000063
 31
0.0
  0
LINE
  5
A52
  8
0
 10
267.34375
 20
-120.6650000000000063
 30
0.0
 11
280.34375
 21
-120.6650000000000063
 31
0.0
  0
LINE
  5
A53
  8
0
 10
266.84375
 20
-107.1650000000000063
 30
0.0
 11
266.84375
 21
-120.1650000000000063
 31
0.0
  0
LINE
  5
A54
  8
0
 10
280.84375
 20
-107.1650000000000063
 30
0.0
 11
280.84375
 21
-120.1650000000000063
 31
0.0
  0
ARC
  5
A55
  8
0
 10
267.34375
 20
-107.1650000000000063
 30
0.0
 40
0.5
 50
90.0
 51
180.0
  0
ARC
  5
A56
  8
0
 10
280.34375
 20
-107.1650000000000063
 30
0.0
 40
0.5
 50
0.0
 51
90.0
  0
ARC
  5
A57
  8
0
 10
267.34375
 20
-120.1650000000000063
 30
0.0
 40
0.5
 50
180.0
 51
270.0
  0
ARC
  5
A58
  8
0
 10
280.34375
 20
-120.1650000000000063
 30
0.0
 40
0.5
 50
270.0
 51
0.0
  0
LINE
  5
A59
  8
0
 10
293.8550000000000182
 20
-106.6650000000000063
 30
0.0
 11
306.8550000000000182
 21
-106.6650000000000063
 31
0.0
  0
LINE
  5
A5A
  8
0
 10
293.8550000000000182
 20
-120.6650000000000063
 30
0.0
 11
306.8550000000000182
 21
-120.6650000000000063
 31
0.0
  0
LINE
  5
A5B
  8
0
 10
293.3550000000000182
 20
-107.1650000000000063
 30
0.0
 11
293.3550000000000182
 21
-120.1650000000000063
 31
0.0
  0
LINE
  5
A5C
  8
0
 10
307.3550000000000182
 20
-107.1650000000000063
 30
0.0
 11
307.3550000000000182
 21
-120.1650000000000063
 31
0.0
  0
ARC
  5
A5D
  8
0
 10
293.8550000000000182
 20
-107.1650000000000063
 30
0.0
 40
0.5
 50
90.0
 51
180.0
  0
ARC
  5
A5E
  8
0
 10
306.8550000000000182
 20
-107.1650000000000063
 30
0.0
 40
0.5
 50
0.0
 51
90.0
  0
ARC
  5
A5F
  8
0
 10
293.8550000000000182
 20
-120.1650000000000063
 30
0.0
 40
0.5
 50
180.0
 51
270.0
  0
ARC
  5
A60
  8
0
 10
306.8550000000000182
 20
-120.1650000000000063
 30
0.0
 40
0.5
 50
270.0
 51
0.0
  0
LINE
  5
A61
  8
0
 10
312.9049999999999727
 20
-106.6650000000000063
 30
0.0
 11
325.9049999999999727
 21
-106.6650000000000063
 31
0.0
  0
LINE
  5
A62
  8
0
 10
312.9049999999999727
 20
-120.6650000000000063
 30
0.0
 11
325.9049999999999727
 21
-120.6650000000000063
 31
0.0
  0
LINE
  5
A63
  8
0
 10
312.4049999999999727
 20
-107.1650000000000063
 30
0.0
 11
312.4049999999999727
 21
-120.1650000000000063
 31
0.0
  0
LINE
  5
A64
  8
0
 10
326.4049999999999727
 20
-107.1650000000000063
 30
0.0
 11
326.4049999999999727
 21
-120.1650000000000063
 31
0.0
  0
ARC
  5
A65
  8
0
 10
312.9049999999999727
 20
-107.1650000000000063
 30
0.0
 40
0.5
 50
90.0
 51
180.0
  0
ARC
  5
A66
  8
0
 10
325.9049999999999727
 20
-107.1650000000000063
 30
0.0
 40
0.5
 50
0.0
 51
90.0
  0
ARC
  5
A67
  8
0
 10
312.9049999999999727
 20
-120.1650000000000063
 30
0.0
 40
0.5
 50
180.0
 51
270.0
  0
ARC
  5
A68
  8
0
 10
325.9049999999999727
 20
-120.1650000000000063
 30
0.0
 40
0.5
 50
270.0
 51
0.0
  0
LINE
  5
A69
  8
0
 10
331.9549999999999841
 20
-106.6650000000000063
 30
0.0
 11
344.9549999999999841
 21
-106.6650000000000063
 31
0.0
  0
LINE
  5
A6A
  8
0
 10
331.9549999999999841
 20
-120.6650000000000063
 30
0.0
 11
344.9549999999999841
 21
-120.6650000000000063
 31
0.0
  0
LINE
  5
A6B
  8
0
 10
331.4549999999999841
 20
-107.1650000000000063
 30
0.0
 11
331.4549999999999841
 21
-120.1650000000000063
 31
0.0
  0
LINE
  5
A6C
  8
0
 10
345.4549999999999841
 20
-107.1650000000000063
 30
0.0
 11
345.4549999999999841
 21
-120.1650000000000063
 31
0.0
  0
ARC
  5
A6D
  8
0
 10
331.9549999999999841
 20
-107.1650000000000063
 30
0.0
 40
0.5
 50
90.0
 51
180.0
  0
ARC
  5
A6E
  8
0
 10
344.9549999999999841
 20
-107.1650000000000063
 30
0.0
 40
0.5
 50
0.0
 51
90.0
  0
ARC
  5
A6F
  8
0
 10
331.9549999999999841
 20
-120.1650000000000063
 30
0.0
 40
0.5
 50
180.0
 51
270.0
  0
ARC
  5
A70
  8
0
 10
344.9549999999999841
 20
-120.1650000000000063
 30
0.0
 40
0.5
 50
270.0
 51
0.0
  0
LINE
  5
A71
  8
0
 10
28.4312499999999986
 20
-100.4316000000000031
 30
0.0
 11
28.4312499999999986
 21
-101.1149999999999949
 31
0.0
  0
LINE
  5
A72
  8
0
 10
14.4312500000000004
 20
-100.4316000000000031
 30
0.0
 11
14.4312500000000004
 21
-101.1149999999999949
 31
0.0
  0
LINE
  5
A73
  8
0
 10
137.96875
 20
-115.9650000000000034
 30
0.0
 11
137.96875
 21
-120.1650000000000063
 31
0.0
  0
LINE
  5
A74
  8
0
 10
123.96875
 20
-115.9650000000000034
 30
0.0
 11
123.96875
 21
-120.1650000000000063
 31
0.0
  0
CIRCLE
  5
A75
  8
0
 10
328.9300000000000068
 20
-23.4950000000000898
 30
0.0
 40
3.8100000000000001
  0
CIRCLE
  5
A76
  8
0
 10
309.8799999999999955
 20
-23.4950000000000898
 30
0.0
 40
3.8100000000000001
  0
CIRCLE
  5
A77
  8
0
 10
173.9900000000000091
 20
-23.4950000000000898
 30
0.0
 40
3.048
  0
LINE
  5
A78
  8
0
 10
346.9800000000000182
 20
2.1589999999999621
 30
0.0
 11
1.0000000000000551
 21
2.1589999999999621
 31
0.0
  0
LINE
  5
A79
  8
0
 10
347.9800000000000182
 20
-124.3490000000000038
 30
0.0
 11
347.9800000000000182
 21
1.1589999999999481
 31
0.0
  0
LINE
  5
A7A
  8
0
 10
0.9999999999999992
 20
-125.3490000000001032
 30
0.0
 11
346.9800000000000182
 21
-125.3490000000000038
 31
0.0
  0
LINE
  5
A7B
  8
0
 10
0.0
 20
1.1589999999999621
 30
0.0
 11
0.0
 21
-124.3490000000001032
 31
0.0
  0
ARC
  5
A7C
  8
0
 10
177.8913499999999033
 20
-108.2253999999999934
 30
0.0
 40
0.25
 50
90.0
 51
180.0
  0
ARC
  5
A7D
  8
0
 10
184.0461500000000115
 20
-108.2253999999999934
 30
0.0
 40
0.25
 50
0.0
 51
90.0
  0
ARC
  5
A7E
  8
0
 10
184.9097500000000025
 20
-111.6290000000000049
 30
0.0
 40
0.25
 50
0.0
 51
90.0
  0
ARC
  5
A7F
  8
0
 10
184.9097500000000025
 20
-113.9230000000000018
 30
0.0
 40
0.25
 50
270.0
 51
0.0
  0
ARC
  5
A80
  8
0
 10
184.0461500000000115
 20
-120.0190000000000055
 30
0.0
 40
0.25
 50
270.0
 51
0.0
  0
ARC
  5
A81
  8
0
 10
182.2427500000000009
 20
-121.1873999999999967
 30
0.0
 40
0.25
 50
270.0
 51
0.0
  0
ARC
  5
A82
  8
0
 10
179.6947499999999991
 20
-121.1873999999999967
 30
0.0
 40
0.25
 50
180.0
 51
270.0
  0
ARC
  5
A83
  8
0
 10
177.8913499999999033
 20
-120.0190000000000055
 30
0.0
 40
0.25
 50
180.0
 51
270.0
  0
ARC
  5
A84
  8
0
 10
84.0461499999999688
 20
-120.0190000000000055
 30
0.0
 40
0.25
 50
270.0
 51
0.0
  0
ARC
  5
A85
  8
0
 10
77.8913500000000028
 20
-120.0190000000000055
 30
0.0
 40
0.25
 50
180.0
 51
270.0
  0
ARC
  5
A86
  8
0
 10
79.6947499999999991
 20
-121.1873999999999967
 30
0.0
 40
0.25
 50
180.0
 51
270.0
  0
ARC
  5
A87
  8
0
 10
82.2427500000000009
 20
-121.1873999999999967
 30
0.0
 40
0.25
 50
270.0
 51
0.0
  0
ARC
  5
A88
  8
0
 10
77.8913500000000028
 20
-108.2253999999999934
 30
0.0
 40
0.25
 50
90.0
 51
180.0
  0
ARC
  5
A89
  8
0
 10
84.0461499999999688
 20
-108.2253999999999934
 30
0.0
 40
0.25
 50
0.0
 51
90.0
  0
ARC
  5
A8A
  8
0
 10
77.0277499999999833
 20
-111.6290000000000049
 30
0.0
 40
0.25
 50
90.0
 51
180.0
  0
ARC
  5
A8B
  8
0
 10
77.0277499999999833
 20
-113.9230000000000018
 30
0.0
 40
0.25
 50
180.0
 51
270.0
  0
ARC
  5
A8C
  8
0
 10
6.4158499999999981
 20
-89.1754000000000531
 30
0.0
 40
0.25
 50
90.0
 51
180.0
  0
ARC
  5
A8D
  8
0
 10
12.5706500000000005
 20
-89.1754000000000531
 30
0.0
 40
0.25
 50
0.0
 51
90.0
  0
ARC
  5
A8E
  8
0
 10
30.2918500000000002
 20
-89.1754000000000531
 30
0.0
 40
0.25
 50
90.0
 51
180.0
  0
ARC
  5
A8F
  8
0
 10
36.4466499999999982
 20
-89.1754000000000531
 30
0.0
 40
0.25
 50
0.0
 51
90.0
  0
ARC
  5
A90
  8
0
 10
37.3102500000000106
 20
-92.5790000000000646
 30
0.0
 40
0.25
 50
0.0
 51
90.0
  0
ARC
  5
A91
  8
0
 10
37.3102500000000106
 20
-94.8730000000000047
 30
0.0
 40
0.25
 50
270.0
 51
0.0
  0
ARC
  5
A92
  8
0
 10
36.4466499999999982
 20
-100.9689999999999941
 30
0.0
 40
0.25
 50
270.0
 51
0.0
  0
ARC
  5
A93
  8
0
 10
34.6432500000000019
 20
-102.1373999999999995
 30
0.0
 40
0.25
 50
270.0
 51
0.0
  0
ARC
  5
A94
  8
0
 10
32.0952500000000001
 20
-102.1373999999999995
 30
0.0
 40
0.25
 50
180.0
 51
270.0
  0
ARC
  5
A95
  8
0
 10
30.2918500000000002
 20
-100.9689999999999941
 30
0.0
 40
0.25
 50
180.0
 51
270.0
  0
ARC
  5
A96
  8
0
 10
8.2192500000000024
 20
-102.1373999999999995
 30
0.0
 40
0.25
 50
180.0
 51
270.0
  0
ARC
  5
A97
  8
0
 10
10.7672500000000007
 20
-102.1373999999999995
 30
0.0
 40
0.25
 50
270.0
 51
0.0
  0
ARC
  5
A98
  8
0
 10
12.5706500000000005
 20
-100.9689999999999941
 30
0.0
 40
0.25
 50
270.0
 51
0.0
  0
ARC
  5
A99
  8
0
 10
5.552249999999999
 20
-92.5790000000000646
 30
0.0
 40
0.25
 50
90.0
 51
180.0
  0
ARC
  5
A9A
  8
0
 10
5.552249999999999
 20
-94.8730000000000047
 30
0.0
 40
0.25
 50
180.0
 51
270.0
  0
ARC
  5
A9B
  8
0
 10
6.4158499999999981
 20
-100.9689999999999941
 30
0.0
 40
0.25
 50
180.0
 51
270.0
  0
ARC
  5
A9C
  8
0
 10
1.0000000000000551
 20
1.1589999999999621
 30
0.0
 40
1.0
 50
90.0
 51
180.0
  0
ARC
  5
A9D
  8
0
 10
346.9800000000000182
 20
1.1589999999999481
 30
0.0
 40
1.0
 50
0.0
 51
90.0
  0
ARC
  5
A9E
  8
0
 10
346.9800000000000182
 20
-124.3490000000000038
 30
0.0
 40
1.0
 50
270.0
 51
0.0
  0
ARC
  5
A9F
  8
0
 10
0.9999999999999992
 20
-124.3490000000001032
 30
0.0
 40
1.0
 50
180.0
 51
270.0
  0
LINE
  5
AA0
  8
0
  6
CONTINUOUS
 10
344.4549999999999841
 20
-68.0650000000000546
 30
0.0
 11
287.5993750000000091
 21
-68.0650000000000404
 31
0.0
  0
LINE
  5
AA1
  8
0
  6
CONTINUOUS
 10
344.9549999999999841
 20
-68.5650000000000546
 30
0.0
 11
344.9549999999999841
 21
-101.6149999999999949
 31
0.0
  0
LINE
  5
AA2
  8
0
  6
CONTINUOUS
 10
344.4549999999999841
 20
-102.1149999999999949
 30
0.0
 11
331.4549999999999841
 21
-102.1149999999999949
 31
0.0
  0
LINE
  5
AA6
  8
0
  6
CONTINUOUS
 10
307.3550000000000182
 20
-102.1149999999999949
 30
0.0
 11
287.5993750000000091
 21
-102.1149999999999949
 31
0.0
  0
ARC
  5
AA9
  8
0
  6
CONTINUOUS
 10
344.4549999999999841
 20
-68.5650000000000546
 30
0.0
 40
0.5
 50
0.0
 51
90.0
  0
ARC
  5
AAA
  8
0
  6
CONTINUOUS
 10
344.4549999999999841
 20
-101.6149999999999949
 30
0.0
 40
0.5
 50
270.0
 51
0.0
  0
ARC
  5
AAB
  8
0
  6
CONTINUOUS
 10
331.4549999999999841
 20
-101.6149999999999949
 30
0.0
 40
0.5
 50
180.0
 51
270.0
  0
ARC
  5
AAC
  8
0
  6
CONTINUOUS
 10
307.3550000000000182
 20
-101.6149999999999949
 30
0.0
 40
0.5
 50
270.0
 51
0.0
  0
CIRCLE
  5
AAE
  8
0
  6
CONTINUOUS
 10
57.1499999999999915
 20
-23.4950000000000188
 30
0.0
 40
1.523999999999992
  0
CIRCLE
  5
AAF
  8
0
  6
CONTINUOUS
 10
288.2900000000000205
 20
-23.4950000000000898
 30
0.0
 40
1.524000000000054
  0
LINE
  5
AB2
  8
0
 10
260.1999999999999886
 20
-30.4650000000000887
 30
0.0
 11
273.1999999999999886
 21
-30.4650000000000887
 31
0.0
  0
LINE
  5
AB3
  8
0
 10
260.1999999999999886
 20
-44.4650000000000318
 30
0.0
 11
273.1999999999999886
 21
-44.4650000000000318
 31
0.0
  0
LINE
  5
AB4
  8
0
 10
259.6999999999999886
 20
-30.9650000000000887
 30
0.0
 11
259.6999999999999886
 21
-32.5882000000000929
 31
0.0
  0
LINE
  5
AB5
  8
0
 10
273.6999999999999886
 20
-30.9650000000000887
 30
0.0
 11
273.6999999999999886
 21
-32.5882000000000929
 31
0.0
  0
ARC
  5
AB6
  8
0
 10
260.1999999999999886
 20
-30.9650000000000887
 30
0.0
 40
0.5
 50
90.0
 51
180.0
  0
ARC
  5
AB7
  8
0
 10
273.1999999999999886
 20
-30.9650000000000887
 30
0.0
 40
0.5
 50
0.0
 51
90.0
  0
ARC
  5
AB8
  8
0
 10
260.1999999999999886
 20
-43.9650000000000318
 30
0.0
 40
0.5
 50
180.0
 51
270.0
  0
ARC
  5
AB9
  8
0
 10
273.1999999999999886
 20
-43.9650000000000318
 30
0.0
 40
0.5
 50
270.0
 51
0.0
  0
LINE
  5
ABA
  8
0
 10
251.684599999999989
 20
-31.7754000000000794
 30
0.0
 11
257.8393999999998982
 21
-31.7754000000000794
 31
0.0
  0
LINE
  5
ABB
  8
0
 10
258.0894000000000119
 20
-32.0254000000000829
 30
0.0
 11
258.0894000000000119
 21
-32.5882000000000929
 31
0.0
  0
LINE
  5
ABC
  8
0
 10
258.0894000000000119
 20
-32.5882000000000929
 30
0.0
 11
259.6999999999999886
 21
-32.5882000000000929
 31
0.0
  0
LINE
  5
ABD
  8
0
 10
259.6999999999999886
 20
-43.2816000000000329
 30
0.0
 11
258.0894000000000119
 21
-43.2816000000000329
 31
0.0
  0
LINE
  5
ABE
  8
0
 10
258.0894000000000119
 20
-43.2816000000000329
 30
0.0
 11
258.0894000000000119
 21
-43.8190000000000026
 31
0.0
  0
LINE
  5
ABF
  8
0
 10
257.8393999999998982
 20
-44.0690000000000097
 30
0.0
 11
256.2860000000000014
 21
-44.0690000000000097
 31
0.0
  0
LINE
  5
AC0
  8
0
 10
256.2860000000000014
 20
-44.0690000000000097
 30
0.0
 11
256.2860000000000014
 21
-44.9874000000000365
 31
0.0
  0
LINE
  5
AC1
  8
0
 10
256.0360000000000014
 20
-45.2374000000000223
 30
0.0
 11
253.4879999999999995
 21
-45.2374000000000223
 31
0.0
  0
LINE
  5
AC2
  8
0
 10
253.2379999999999995
 20
-44.9874000000000365
 30
0.0
 11
253.2379999999999995
 21
-44.0690000000000097
 31
0.0
  0
LINE
  5
AC3
  8
0
 10
253.2379999999999995
 20
-44.0690000000000097
 30
0.0
 11
251.684599999999989
 21
-44.0690000000000097
 31
0.0
  0
LINE
  5
AC4
  8
0
 10
251.434599999999989
 20
-43.8190000000000026
 30
0.0
 11
251.434599999999989
 21
-37.9730000000000416
 31
0.0
  0
LINE
  5
AC5
  8
0
 10
251.434599999999989
 20
-37.9730000000000416
 30
0.0
 11
250.820999999999998
 21
-37.9730000000000416
 31
0.0
  0
LINE
  5
AC6
  8
0
 10
250.570999999999998
 20
-37.7230000000000416
 30
0.0
 11
250.570999999999998
 21
-35.4290000000000873
 31
0.0
  0
LINE
  5
AC7
  8
0
 10
250.820999999999998
 20
-35.1790000000000873
 30
0.0
 11
251.434599999999989
 21
-35.1790000000000873
 31
0.0
  0
LINE
  5
AC8
  8
0
 10
251.434599999999989
 20
-35.1790000000000873
 30
0.0
 11
251.434599999999989
 21
-32.0254000000000829
 31
0.0
  0
LINE
  5
AC9
  8
0
 10
281.7153999999999883
 20
-31.7754000000000794
 30
0.0
 11
275.5606000000000222
 21
-31.7754000000000794
 31
0.0
  0
LINE
  5
ACA
  8
0
 10
275.3106000000000222
 20
-32.0254000000000829
 30
0.0
 11
275.3106000000000222
 21
-32.5882000000000929
 31
0.0
  0
LINE
  5
ACB
  8
0
 10
275.3106000000000222
 20
-32.5882000000000929
 30
0.0
 11
273.6999999999999886
 21
-32.5882000000000929
 31
0.0
  0
LINE
  5
ACC
  8
0
 10
273.6999999999999886
 20
-43.2816000000000329
 30
0.0
 11
275.3106000000000222
 21
-43.2816000000000329
 31
0.0
  0
LINE
  5
ACD
  8
0
 10
275.3106000000000222
 20
-43.2816000000000329
 30
0.0
 11
275.3106000000000222
 21
-43.8190000000000026
 31
0.0
  0
LINE
  5
ACE
  8
0
 10
275.5606000000000222
 20
-44.0690000000000097
 30
0.0
 11
277.1139999999999759
 21
-44.0690000000000097
 31
0.0
  0
LINE
  5
ACF
  8
0
 10
277.1139999999999759
 20
-44.0690000000000097
 30
0.0
 11
277.1139999999999759
 21
-44.9874000000000365
 31
0.0
  0
LINE
  5
AD0
  8
0
 10
277.3639999999999759
 20
-45.2374000000000223
 30
0.0
 11
279.9119999999999777
 21
-45.2374000000000223
 31
0.0
  0
LINE
  5
AD1
  8
0
 10
280.1619999999999777
 20
-44.9874000000000365
 30
0.0
 11
280.1619999999999777
 21
-44.0690000000000097
 31
0.0
  0
LINE
  5
AD2
  8
0
 10
280.1619999999999777
 20
-44.0690000000000097
 30
0.0
 11
281.7153999999999883
 21
-44.0690000000000097
 31
0.0
  0
LINE
  5
AD3
  8
0
 10
281.9653999999999883
 20
-43.8190000000000026
 30
0.0
 11
281.9653999999999883
 21
-37.9730000000000416
 31
0.0
  0
LINE
  5
AD4
  8
0
 10
281.9653999999999883
 20
-37.9730000000000416
 30
0.0
 11
282.5790000000000077
 21
-37.9730000000000416
 31
0.0
  0
LINE
  5
AD5
  8
0
 10
282.8290000000000077
 20
-37.7230000000000416
 30
0.0
 11
282.8290000000000077
 21
-35.4290000000000873
 31
0.0
  0
LINE
  5
AD6
  8
0
 10
282.5790000000000077
 20
-35.1790000000000873
 30
0.0
 11
281.9653999999999883
 21
-35.1790000000000873
 31
0.0
  0
LINE
  5
AD7
  8
0
 10
281.9653999999999883
 20
-35.1790000000000873
 30
0.0
 11
281.9653999999999883
 21
-32.0254000000000829
 31
0.0
  0
LINE
  5
AD8
  8
0
 10
273.6999999999999886
 20
-43.2816000000000329
 30
0.0
 11
273.6999999999999886
 21
-43.9650000000000318
 31
0.0
  0
LINE
  5
AD9
  8
0
 10
259.6999999999999886
 20
-43.2816000000000329
 30
0.0
 11
259.6999999999999886
 21
-43.9650000000000318
 31
0.0
  0
ARC
  5
ADA
  8
0
 10
251.684599999999989
 20
-32.0254000000000829
 30
0.0
 40
0.25
 50
90.0
 51
180.0
  0
ARC
  5
ADB
  8
0
 10
257.8393999999998982
 20
-32.0254000000000829
 30
0.0
 40
0.25
 50
0.0
 51
90.0
  0
ARC
  5
ADC
  8
0
 10
275.5606000000000222
 20
-32.0254000000000829
 30
0.0
 40
0.25
 50
90.0
 51
180.0
  0
ARC
  5
ADD
  8
0
 10
281.7153999999999883
 20
-32.0254000000000829
 30
0.0
 40
0.25
 50
0.0
 51
90.0
  0
ARC
  5
ADE
  8
0
 10
282.5790000000000077
 20
-35.4290000000000873
 30
0.0
 40
0.25
 50
0.0
 51
90.0
  0
ARC
  5
ADF
  8
0
 10
282.5790000000000077
 20
-37.7230000000000416
 30
0.0
 40
0.25
 50
270.0
 51
0.0
  0
ARC
  5
AE0
  8
0
 10
281.7153999999999883
 20
-43.8190000000000026
 30
0.0
 40
0.25
 50
270.0
 51
0.0
  0
ARC
  5
AE1
  8
0
 10
279.9119999999999777
 20
-44.9874000000000365
 30
0.0
 40
0.25
 50
270.0
 51
0.0
  0
ARC
  5
AE2
  8
0
 10
277.3639999999999759
 20
-44.9874000000000365
 30
0.0
 40
0.25
 50
180.0
 51
270.0
  0
ARC
  5
AE3
  8
0
 10
275.5606000000000222
 20
-43.8190000000000026
 30
0.0
 40
0.25
 50
180.0
 51
270.0
  0
ARC
  5
AE4
  8
0
 10
253.4879999999999995
 20
-44.9874000000000365
 30
0.0
 40
0.25
 50
180.0
 51
270.0
  0
ARC
  5
AE5
  8
0
 10
256.0360000000000014
 20
-44.9874000000000365
 30
0.0
 40
0.25
 50
270.0
 51
0.0
  0
ARC
  5
AE6
  8
0
 10
257.8393999999998982
 20
-43.8190000000000026
 30
0.0
 40
0.25
 50
270.0
 51
0.0
  0
ARC
  5
AE7
  8
0
 10
250.820999999999998
 20
-35.4290000000000873
 30
0.0
 40
0.25
 50
90.0
 51
180.0
  0
ARC
  5
AE8
  8
0
 10
250.820999999999998
 20
-37.7230000000000416
 30
0.0
 40
0.25
 50
180.0
 51
270.0
  0
ARC
  5
AE9
  8
0
 10
251.684599999999989
 20
-43.8190000000000026
 30
0.0
 40
0.25
 50
180.0
 51
270.0
  0
LINE
  5
AEA
  8
0
 10
257.8187500000000227
 20
-68.565000000000083
 30
0.0
 11
270.8187500000000227
 21
-68.565000000000083
 31
0.0
  0
LINE
  5
AEB
  8
0
 10
257.8187500000000227
 20
-82.5649999999999835
 30
0.0
 11
270.8187500000000227
 21
-82.5649999999999835
 31
0.0
  0
LINE
  5
AEC
  8
0
 10
257.3187500000000227
 20
-69.065000000000083
 30
0.0
 11
257.3187500000000227
 21
-70.6882000000000801
 31
0.0
  0
LINE
  5
AED
  8
0
 10
271.3187500000000227
 20
-69.065000000000083
 30
0.0
 11
271.3187500000000227
 21
-70.6882000000000801
 31
0.0
  0
ARC
  5
AEE
  8
0
 10
257.8187500000000227
 20
-69.065000000000083
 30
0.0
 40
0.5
 50
90.0
 51
180.0
  0
ARC
  5
AEF
  8
0
 10
270.8187500000000227
 20
-69.065000000000083
 30
0.0
 40
0.5
 50
0.0
 51
90.0
  0
ARC
  5
AF0
  8
0
 10
257.8187500000000227
 20
-82.0650000000000119
 30
0.0
 40
0.5
 50
180.0
 51
270.0
  0
ARC
  5
AF1
  8
0
 10
270.8187500000000227
 20
-82.0650000000000119
 30
0.0
 40
0.5
 50
270.0
 51
0.0
  0
LINE
  5
AF2
  8
0
 10
249.3033499999999947
 20
-69.8754000000000701
 30
0.0
 11
255.4581499999999892
 21
-69.8754000000000701
 31
0.0
  0
LINE
  5
AF3
  8
0
 10
255.7081499999999892
 20
-70.1254000000000701
 30
0.0
 11
255.7081499999999892
 21
-70.6882000000000801
 31
0.0
  0
LINE
  5
AF4
  8
0
 10
255.7081499999999892
 20
-70.6882000000000801
 30
0.0
 11
257.3187500000000227
 21
-70.6882000000000801
 31
0.0
  0
LINE
  5
AF5
  8
0
 10
257.3187500000000227
 20
-81.3816000000000059
 30
0.0
 11
255.7081499999999892
 21
-81.3816000000000059
 31
0.0
  0
LINE
  5
AF6
  8
0
 10
255.7081499999999892
 20
-81.3816000000000059
 30
0.0
 11
255.7081499999999892
 21
-81.9190000000000254
 31
0.0
  0
LINE
  5
AF7
  8
0
 10
255.4581499999999892
 20
-82.1689999999999827
 30
0.0
 11
253.9047500000000923
 21
-82.1689999999999827
 31
0.0
  0
LINE
  5
AF8
  8
0
 10
253.9047500000000923
 20
-82.1689999999999827
 30
0.0
 11
253.9047500000000923
 21
-83.0874000000000308
 31
0.0
  0
LINE
  5
AF9
  8
0
 10
253.6547500000000923
 20
-83.337400000000045
 30
0.0
 11
251.1067500000000052
 21
-83.337400000000045
 31
0.0
  0
LINE
  5
AFA
  8
0
 10
250.8567500000000052
 20
-83.0874000000000308
 30
0.0
 11
250.8567500000000052
 21
-82.1689999999999827
 31
0.0
  0
LINE
  5
AFB
  8
0
 10
250.8567500000000052
 20
-82.1689999999999827
 30
0.0
 11
249.3033499999999947
 21
-82.1689999999999827
 31
0.0
  0
LINE
  5
AFC
  8
0
 10
249.0533499999999947
 20
-81.9190000000000254
 30
0.0
 11
249.0533499999999947
 21
-76.0730000000000075
 31
0.0
  0
LINE
  5
AFD
  8
0
 10
249.0533499999999947
 20
-76.0730000000000075
 30
0.0
 11
248.4397500000000036
 21
-76.0730000000000075
 31
0.0
  0
LINE
  5
AFE
  8
0
 10
248.1897500000000036
 20
-75.8229999999999933
 30
0.0
 11
248.1897500000000036
 21
-73.5290000000000816
 31
0.0
  0
LINE
  5
AFF
  8
0
 10
248.4397500000000036
 20
-73.2790000000000816
 30
0.0
 11
249.0533499999999947
 21
-73.2790000000000816
 31
0.0
  0
LINE
  5
B00
  8
0
 10
249.0533499999999947
 20
-73.2790000000000816
 30
0.0
 11
249.0533499999999947
 21
-70.1254000000000701
 31
0.0
  0
LINE
  5
B01
  8
0
 10
279.3341500000000224
 20
-69.8754000000000701
 30
0.0
 11
273.1793499999999995
 21
-69.8754000000000701
 31
0.0
  0
LINE
  5
B02
  8
0
 10
272.9293499999999995
 20
-70.1254000000000701
 30
0.0
 11
272.9293499999999995
 21
-70.6882000000000801
 31
0.0
  0
LINE
  5
B03
  8
0
 10
272.9293499999999995
 20
-70.6882000000000801
 30
0.0
 11
271.3187500000000227
 21
-70.6882000000000801
 31
0.0
  0
LINE
  5
B04
  8
0
 10
271.3187500000000227
 20
-81.3816000000000059
 30
0.0
 11
272.9293499999999995
 21
-81.3816000000000059
 31
0.0
  0
LINE
  5
B05
  8
0
 10
272.9293499999999995
 20
-81.3816000000000059
 30
0.0
 11
272.9293499999999995
 21
-81.9190000000000254
 31
0.0
  0
LINE
  5
B06
  8
0
 10
273.1793499999999995
 20
-82.1689999999999827
 30
0.0
 11
274.73275000000001
 21
-82.1689999999999827
 31
0.0
  0
LINE
  5
B07
  8
0
 10
274.73275000000001
 20
-82.1689999999999827
 30
0.0
 11
274.73275000000001
 21
-83.0874000000000308
 31
0.0
  0
LINE
  5
B08
  8
0
 10
274.98275000000001
 20
-83.337400000000045
 30
0.0
 11
277.5307500000000118
 21
-83.337400000000045
 31
0.0
  0
LINE
  5
B09
  8
0
 10
277.7807500000000118
 20
-83.0874000000000308
 30
0.0
 11
277.7807500000000118
 21
-82.1689999999999827
 31
0.0
  0
LINE
  5
B0A
  8
0
 10
277.7807500000000118
 20
-82.1689999999999827
 30
0.0
 11
279.3341500000000224
 21
-82.1689999999999827
 31
0.0
  0
LINE
  5
B0B
  8
0
 10
279.5841500000000224
 20
-81.9190000000000254
 30
0.0
 11
279.5841500000000224
 21
-76.0730000000000075
 31
0.0
  0
LINE
  5
B0C
  8
0
 10
279.5841500000000224
 20
-76.0730000000000075
 30
0.0
 11
280.197749999999985
 21
-76.0730000000000075
 31
0.0
  0
LINE
  5
B0D
  8
0
 10
280.447749999999985
 20
-75.8229999999999933
 30
0.0
 11
280.447749999999985
 21
-73.5290000000000816
 31
0.0
  0
LINE
  5
B0E
  8
0
 10
280.197749999999985
 20
-73.2790000000000816
 30
0.0
 11
279.5841500000000224
 21
-73.2790000000000816
 31
0.0
  0
LINE
  5
B0F
  8
0
 10
279.5841500000000224
 20
-73.2790000000000816
 30
0.0
 11
279.5841500000000224
 21
-70.1254000000000701
 31
0.0
  0
LINE
  5
B10
  8
0
 10
271.3187500000000227
 20
-81.3816000000000059
 30
0.0
 11
271.3187500000000227
 21
-82.0650000000000119
 31
0.0
  0
LINE
  5
B11
  8
0
 10
257.3187500000000227
 20
-81.3816000000000059
 30
0.0
 11
257.3187500000000227
 21
-82.0650000000000119
 31
0.0
  0
ARC
  5
B12
  8
0
 10
249.3033499999999947
 20
-70.1254000000000701
 30
0.0
 40
0.25
 50
90.0
 51
180.0
  0
ARC
  5
B13
  8
0
 10
255.4581499999999892
 20
-70.1254000000000701
 30
0.0
 40
0.25
 50
0.0
 51
90.0
  0
ARC
  5
B14
  8
0
 10
273.1793499999999995
 20
-70.1254000000000701
 30
0.0
 40
0.25
 50
90.0
 51
180.0
  0
ARC
  5
B15
  8
0
 10
279.3341500000000224
 20
-70.1254000000000701
 30
0.0
 40
0.25
 50
0.0
 51
90.0
  0
ARC
  5
B16
  8
0
 10
280.197749999999985
 20
-73.5290000000000816
 30
0.0
 40
0.25
 50
0.0
 51
90.0
  0
ARC
  5
B17
  8
0
 10
280.197749999999985
 20
-75.8229999999999933
 30
0.0
 40
0.25
 50
270.0
 51
0.0
  0
ARC
  5
B18
  8
0
 10
279.3341500000000224
 20
-81.9190000000000254
 30
0.0
 40
0.25
 50
270.0
 51
0.0
  0
ARC
  5
B19
  8
0
 10
277.5307500000000118
 20
-83.0874000000000308
 30
0.0
 40
0.25
 50
270.0
 51
0.0
  0
ARC
  5
B1A
  8
0
 10
274.98275000000001
 20
-83.0874000000000308
 30
0.0
 40
0.25
 50
180.0
 51
270.0
  0
ARC
  5
B1B
  8
0
 10
273.1793499999999995
 20
-81.9190000000000254
 30
0.0
 40
0.25
 50
180.0
 51
270.0
  0
ARC
  5
B1C
  8
0
 10
251.1067500000000052
 20
-83.0874000000000308
 30
0.0
 40
0.25
 50
180.0
 51
270.0
  0
ARC
  5
B1D
  8
0
 10
253.6547500000000923
 20
-83.0874000000000308
 30
0.0
 40
0.25
 50
270.0
 51
0.0
  0
ARC
  5
B1E
  8
0
 10
255.4581499999999892
 20
-81.9190000000000254
 30
0.0
 40
0.25
 50
270.0
 51
0.0
  0
ARC
  5
B1F
  8
0
 10
248.4397500000000036
 20
-73.5290000000000816
 30
0.0
 40
0.25
 50
90.0
 51
180.0
  0
ARC
  5
B20
  8
0
 10
248.4397500000000036
 20
-75.8229999999999933
 30
0.0
 40
0.25
 50
180.0
 51
270.0
  0
ARC
  5
B21
  8
0
 10
249.3033499999999947
 20
-81.9190000000000254
 30
0.0
 40
0.25
 50
180.0
 51
270.0
  0
LINE
  5
B22
  8
0
 10
253.0562500000000057
 20
-87.6150000000000659
 30
0.0
 11
266.0562499999999773
 21
-87.6150000000000659
 31
0.0
  0
LINE
  5
B23
  8
0
 10
253.0562500000000057
 20
-101.6149999999999949
 30
0.0
 11
266.0562499999999773
 21
-101.6149999999999949
 31
0.0
  0
LINE
  5
B24
  8
0
 10
252.5562500000000057
 20
-88.1150000000000659
 30
0.0
 11
252.5562500000000057
 21
-89.738200000000063
 31
0.0
  0
LINE
  5
B25
  8
0
 10
266.5562499999999773
 20
-88.1150000000000659
 30
0.0
 11
266.5562499999999773
 21
-89.738200000000063
 31
0.0
  0
ARC
  5
B26
  8
0
 10
253.0562500000000057
 20
-88.1150000000000659
 30
0.0
 40
0.5
 50
90.0
 51
180.0
  0
ARC
  5
B27
  8
0
 10
266.0562499999999773
 20
-88.1150000000000659
 30
0.0
 40
0.5
 50
0.0
 51
90.0
  0
ARC
  5
B28
  8
0
 10
253.0562500000000057
 20
-101.1149999999999949
 30
0.0
 40
0.5
 50
180.0
 51
270.0
  0
ARC
  5
B29
  8
0
 10
266.0562499999999773
 20
-101.1149999999999949
 30
0.0
 40
0.5
 50
270.0
 51
0.0
  0
LINE
  5
B2A
  8
0
 10
244.540850000000006
 20
-88.9254000000000531
 30
0.0
 11
250.6956499999998869
 21
-88.9254000000000531
 31
0.0
  0
LINE
  5
B2B
  8
0
 10
250.9456499999998869
 20
-89.1754000000000531
 30
0.0
 11
250.9456499999998869
 21
-89.738200000000063
 31
0.0
  0
LINE
  5
B2C
  8
0
 10
250.9456499999998869
 20
-89.738200000000063
 30
0.0
 11
252.5562500000000057
 21
-89.738200000000063
 31
0.0
  0
LINE
  5
B2D
  8
0
 10
252.5562500000000057
 20
-100.4316000000000031
 30
0.0
 11
250.9456499999998869
 21
-100.4316000000000031
 31
0.0
  0
LINE
  5
B2E
  8
0
 10
250.9456499999998869
 20
-100.4316000000000031
 30
0.0
 11
250.9456499999998869
 21
-100.9689999999999941
 31
0.0
  0
LINE
  5
B2F
  8
0
 10
250.6956499999998869
 20
-101.2189999999999941
 30
0.0
 11
249.14224999999999
 21
-101.2189999999999941
 31
0.0
  0
LINE
  5
B30
  8
0
 10
249.14224999999999
 20
-101.2189999999999941
 30
0.0
 11
249.14224999999999
 21
-102.1373999999999995
 31
0.0
  0
LINE
  5
B31
  8
0
 10
248.89224999999999
 20
-102.3873999999999995
 30
0.0
 11
246.3442499999999882
 21
-102.3873999999999995
 31
0.0
  0
LINE
  5
B32
  8
0
 10
246.0942499999999882
 20
-102.1373999999999995
 30
0.0
 11
246.0942499999999882
 21
-101.2189999999999941
 31
0.0
  0
LINE
  5
B33
  8
0
 10
246.0942499999999882
 20
-101.2189999999999941
 30
0.0
 11
244.540850000000006
 21
-101.2189999999999941
 31
0.0
  0
LINE
  5
B34
  8
0
 10
244.290850000000006
 20
-100.9689999999999941
 30
0.0
 11
244.290850000000006
 21
-95.1230000000000047
 31
0.0
  0
LINE
  5
B35
  8
0
 10
244.290850000000006
 20
-95.1230000000000047
 30
0.0
 11
243.6772499999999866
 21
-95.1230000000000047
 31
0.0
  0
LINE
  5
B36
  8
0
 10
243.4272499999999866
 20
-94.8730000000000047
 30
0.0
 11
243.4272499999999866
 21
-92.5790000000000646
 31
0.0
  0
LINE
  5
B37
  8
0
 10
243.6772499999999866
 20
-92.3290000000000646
 30
0.0
 11
244.290850000000006
 21
-92.3290000000000646
 31
0.0
  0
LINE
  5
B38
  8
0
 10
244.290850000000006
 20
-92.3290000000000646
 30
0.0
 11
244.290850000000006
 21
-89.1754000000000531
 31
0.0
  0
LINE
  5
B39
  8
0
 10
274.5716499999999769
 20
-88.9254000000000531
 30
0.0
 11
268.4168500000000108
 21
-88.9254000000000531
 31
0.0
  0
LINE
  5
B3A
  8
0
 10
268.1668500000000108
 20
-89.1754000000000531
 30
0.0
 11
268.1668500000000108
 21
-89.738200000000063
 31
0.0
  0
LINE
  5
B3B
  8
0
 10
268.1668500000000108
 20
-89.738200000000063
 30
0.0
 11
266.5562499999999773
 21
-89.738200000000063
 31
0.0
  0
LINE
  5
B3C
  8
0
 10
266.5562499999999773
 20
-100.4316000000000031
 30
0.0
 11
268.1668500000000108
 21
-100.4316000000000031
 31
0.0
  0
LINE
  5
B3D
  8
0
 10
268.1668500000000108
 20
-100.4316000000000031
 30
0.0
 11
268.1668500000000108
 21
-100.9689999999999941
 31
0.0
  0
LINE
  5
B3E
  8
0
 10
268.4168500000000108
 20
-101.2189999999999941
 30
0.0
 11
269.9702500000000214
 21
-101.2189999999999941
 31
0.0
  0
LINE
  5
B3F
  8
0
 10
269.9702500000000214
 20
-101.2189999999999941
 30
0.0
 11
269.9702500000000214
 21
-102.1373999999999995
 31
0.0
  0
LINE
  5
B40
  8
0
 10
270.2202500000000214
 20
-102.3873999999999995
 30
0.0
 11
272.7682500000000232
 21
-102.3873999999999995
 31
0.0
  0
LINE
  5
B41
  8
0
 10
273.0182500000000232
 20
-102.1373999999999995
 30
0.0
 11
273.0182500000000232
 21
-101.2189999999999941
 31
0.0
  0
LINE
  5
B42
  8
0
 10
273.0182500000000232
 20
-101.2189999999999941
 30
0.0
 11
274.5716499999999769
 21
-101.2189999999999941
 31
0.0
  0
LINE
  5
B43
  8
0
 10
274.8216499999999769
 20
-100.9689999999999941
 30
0.0
 11
274.8216499999999769
 21
-95.1230000000000047
 31
0.0
  0
LINE
  5
B44
  8
0
 10
274.8216499999999769
 20
-95.1230000000000047
 30
0.0
 11
275.4352499999999964
 21
-95.1230000000000047
 31
0.0
  0
LINE
  5
B45
  8
0
 10
275.6852499999999964
 20
-94.8730000000000047
 30
0.0
 11
275.6852499999999964
 21
-92.5790000000000646
 31
0.0
  0
LINE
  5
B46
  8
0
 10
275.4352499999999964
 20
-92.3290000000000646
 30
0.0
 11
274.8216499999999769
 21
-92.3290000000000646
 31
0.0
  0
LINE
  5
B47
  8
0
 10
274.8216499999999769
 20
-92.3290000000000646
 30
0.0
 11
274.8216499999999769
 21
-89.1754000000000531
 31
0.0
  0
LINE
  5
B48
  8
0
 10
266.5562499999999773
 20
-100.4316000000000031
 30
0.0
 11
266.5562499999999773
 21
-101.1149999999999949
 31
0.0
  0
LINE
  5
B49
  8
0
 10
252.5562500000000057
 20
-100.4316000000000031
 30
0.0
 11
252.5562500000000057
 21
-101.1149999999999949
 31
0.0
  0
ARC
  5
B4A
  8
0
 10
244.540850000000006
 20
-89.1754000000000531
 30
0.0
 40
0.25
 50
90.0
 51
180.0
  0
ARC
  5
B4B
  8
0
 10
250.6956499999998869
 20
-89.1754000000000531
 30
0.0
 40
0.25
 50
0.0
 51
90.0
  0
ARC
  5
B4C
  8
0
 10
268.4168500000000108
 20
-89.1754000000000531
 30
0.0
 40
0.25
 50
90.0
 51
180.0
  0
ARC
  5
B4D
  8
0
 10
274.5716499999999769
 20
-89.1754000000000531
 30
0.0
 40
0.25
 50
0.0
 51
90.0
  0
ARC
  5
B4E
  8
0
 10
275.4352499999999964
 20
-92.5790000000000646
 30
0.0
 40
0.25
 50
0.0
 51
90.0
  0
ARC
  5
B4F
  8
0
 10
275.4352499999999964
 20
-94.8730000000000047
 30
0.0
 40
0.25
 50
270.0
 51
0.0
  0
ARC
  5
B50
  8
0
 10
274.5716499999999769
 20
-100.9689999999999941
 30
0.0
 40
0.25
 50
270.0
 51
0.0
  0
ARC
  5
B51
  8
0
 10
272.7682500000000232
 20
-102.1373999999999995
 30
0.0
 40
0.25
 50
270.0
 51
0.0
  0
ARC
  5
B52
  8
0
 10
270.2202500000000214
 20
-102.1373999999999995
 30
0.0
 40
0.25
 50
180.0
 51
270.0
  0
ARC
  5
B53
  8
0
 10
268.4168500000000108
 20
-100.9689999999999941
 30
0.0
 40
0.25
 50
180.0
 51
270.0
  0
ARC
  5
B54
  8
0
 10
246.3442499999999882
 20
-102.1373999999999995
 30
0.0
 40
0.25
 50
180.0
 51
270.0
  0
ARC
  5
B55
  8
0
 10
248.89224999999999
 20
-102.1373999999999995
 30
0.0
 40
0.25
 50
270.0
 51
0.0
  0
ARC
  5
B56
  8
0
 10
250.6956499999998869
 20
-100.9689999999999941
 30
0.0
 40
0.25
 50
270.0
 51
0.0
  0
ARC
  5
B57
  8
0
 10
243.6772499999999866
 20
-92.5790000000000646
 30
0.0
 40
0.25
 50
90.0
 51
180.0
  0
ARC
  5
B58
  8
0
 10
243.6772499999999866
 20
-94.8730000000000047
 30
0.0
 40
0.25
 50
180.0
 51
270.0
  0
ARC
  5
B59
  8
0
 10
244.540850000000006
 20
-100.9689999999999941
 30
0.0
 40
0.25
 50
180.0
 51
270.0
  0
LINE
  5
C3E
  8
0
  6
CONTINUOUS
 10
330.9549999999999841
 20
-101.6149999999999949
 30
0.0
 11
330.9549999999999841
 21
-84.3150000000000546
 31
0.0
  0
LINE
  5
C3F
  8
0
  6
CONTINUOUS
 10
307.8550000000000182
 20
-101.6149999999999949
 30
0.0
 11
307.8550000000000182
 21
-84.3150000000000546
 31
0.0
  0
LINE
  5
C40
  8
0
  6
CONTINUOUS
 10
308.3550000000000182
 20
-83.8150000000000688
 30
0.0
 11
330.4549999999999841
 21
-83.8150000000000688
 31
0.0
  0
ARC
  5
C41
  8
0
  6
CONTINUOUS
 10
330.4549999999999841
 20
-84.3150000000000546
 30
0.0
 40
0.5
 50
0.0
 51
90.0
  0
ARC
  5
C42
  8
0
  6
CONTINUOUS
 10
308.3550000000000182
 20
-84.3150000000000546
 30
0.0
 40
0.5
 50
90.0
 51
180.0
  0
LINE
  5
C4E
  8
0
  6
CONTINUOUS
 10
287.0993750000000091
 20
-101.6149999999999949
 30
0.0
 11
287.0993750000000091
 21
-68.5650000000000404
 31
0.0
  0
ARC
  5
C4F
  8
0
  6
CONTINUOUS
 10
287.5993750000000091
 20
-101.6149999999999949
 30
0.0
 40
0.5
 50
179.9999999999998863
 51
270.0
  0
ARC
  5
C52
  8
0
  6
CONTINUOUS
 10
287.5993750000000091
 20
-68.5650000000000404
 30
0.0
 40
0.5
 50
90.0
 51
179.9999999999998863
  0
ENDSEC
  0
EOF
